<?xml version="1.0" standalone="no"?>
<!DOCTYPE svg PUBLIC "-//W3C//DTD SVG 1.1//EN" "http://www.w3.org/Graphics/SVG/1.1/DTD/svg11.dtd" >
<svg xmlns="http://www.w3.org/2000/svg">
<metadata>Generated by IcoMoon</metadata>
<defs>
<font id="ico-movistar" horiz-adv-x="1024">
<font-face units-per-em="1024" ascent="960" descent="-64" />
<missing-glyph horiz-adv-x="1024" />
<glyph unicode="&#x20;" horiz-adv-x="512" d="" />
<glyph unicode="&#xe900;" glyph-name="arrow-down" d="M436.499 887.381v-702.959l-293.99 285.093c-29.274 28.381-76.65 28.381-105.924 0s-29.274-74.315 0-102.697l422.446-409.577c14.045-13.616 33.083-21.241 52.993-21.241s38.887 7.624 52.993 21.241l422.445 409.577c14.607 14.16 21.909 32.739 21.909 51.378s-7.303 37.157-21.909 51.378c-29.273 28.382-76.649 28.382-105.923 0l-295.238-286.243v704.049c0 40.123-33.518 72.62-74.903 72.62-41.383 0-74.901-32.497-74.901-72.62z" />
<glyph unicode="&#xe901;" glyph-name="arrow-left" d="M951.38 522.53h-702.959l285.093 290.199c28.382 28.897 28.382 75.661 0 104.558s-74.314 28.897-102.698 0l-409.575-416.999c-13.616-13.863-21.242-32.655-21.242-52.309 0-19.656 7.625-38.386 21.242-52.311l409.575-416.999c14.162-14.417 32.74-21.626 51.38-21.626 18.638 0 37.158 7.209 51.378 21.626 28.382 28.897 28.382 75.661 0 104.559l-286.243 291.43h704.049c40.122 0 72.62 33.086 72.62 73.937 0 40.849-32.497 73.935-72.62 73.935z" />
<glyph unicode="&#xe902;" glyph-name="arrow-right" d="M72.62 374.478h702.959l-285.093-286.277c-28.383-28.507-28.383-74.64 0-103.146s74.314-28.506 102.696 0l409.577 411.365c13.617 13.676 21.241 32.214 21.241 51.602 0 19.39-7.624 37.867-21.241 51.604l-409.577 411.365c-14.16 14.222-32.739 21.334-51.378 21.334s-37.158-7.112-51.378-21.334c-28.381-28.506-28.381-74.639 0-103.145l286.244-287.493h-704.050c-40.122 0-72.62-32.639-72.62-72.938 0-40.297 32.497-72.936 72.62-72.936z" />
<glyph unicode="&#xe903;" glyph-name="arrow-up" d="M585.282 8.618v702.961l285.343-285.093c28.413-28.381 74.395-28.381 102.808 0 28.413 28.382 28.413 74.315 0 102.697l-410.021 409.576c-13.631 13.616-32.11 21.241-51.436 21.241s-37.742-7.625-51.434-21.241l-410.021-409.576c-14.176-14.16-21.264-32.739-21.264-51.378s7.088-37.157 21.264-51.378c28.413-28.382 74.395-28.382 102.808 0l286.554 286.243v-704.051c0-40.122 32.532-72.619 72.7-72.619 40.166 0 72.698 32.497 72.698 72.619z" />
<glyph unicode="&#xe904;" glyph-name="camera" d="M620.269 800.549l94.297-100.433h209.549v-605.351h-821.435v605.351h209.55l91.502 100.433h216.536zM665.67 901.671h-307.34l-93.599-101.122h-162.052c-27.112 0.001-53.123-10.558-72.36-29.374s-30.135-44.36-30.32-71.059v-605.351c0-13.247 2.661-26.365 7.829-38.595s12.743-23.333 22.287-32.668c9.544-9.334 20.869-16.718 33.323-21.724s25.79-7.538 39.241-7.447h818.64c13.452-0.090 26.787 2.439 39.242 7.447s23.779 12.39 33.323 21.724c9.544 9.335 17.117 20.438 22.287 32.668 5.168 12.23 7.829 25.347 7.829 38.595v605.351c-0.184 26.699-11.084 52.243-30.32 71.059s-45.247 29.374-72.361 29.374h-162.051l-93.599 101.122zM512.001 548.779c30.393 0 60.103-8.877 85.374-25.506s44.967-40.265 56.597-67.919c11.632-27.654 14.674-58.081 8.746-87.439-5.931-29.357-20.566-56.323-42.057-77.487s-48.872-35.579-78.681-41.418c-29.808-5.839-60.708-2.843-88.787 8.612s-52.079 30.851-68.964 55.74c-16.886 24.887-25.898 54.146-25.898 84.078 0.184 40.081 16.433 78.469 45.211 106.812 28.78 28.343 67.759 44.345 108.458 44.526zM512.001 649.212c-50.731 0-100.321-14.825-142.493-42.595s-75.027-67.241-94.409-113.412-24.418-96.968-14.47-145.959c9.948-48.99 34.432-93.974 70.354-129.252 35.921-35.28 81.663-59.271 131.435-68.933s101.339-4.565 148.168 14.649 86.817 51.679 114.902 93.285c28.083 41.608 43 90.485 42.861 140.446 0.001 33.122-6.635 65.917-19.526 96.508-12.892 30.592-31.785 58.377-55.598 81.765-23.814 23.387-52.079 41.919-83.178 54.531-31.097 12.612-64.416 19.058-98.047 18.967v0z" />
<glyph unicode="&#xe905;" glyph-name="card" d="M921.599 864.736h-819.191c-13.494 0.175-26.888-2.4-39.389-7.575s-23.858-12.841-33.401-22.551c-9.542-9.709-17.079-21.265-22.165-33.983s-7.616-26.346-7.445-40.076v-625.108c-0.085-13.706 2.505-27.294 7.622-39.972 5.116-12.68 12.655-24.2 22.181-33.89 9.525-9.692 20.848-17.362 33.309-22.569 12.461-5.205 25.816-7.841 39.287-7.754h819.191c13.472-0.087 26.826 2.549 39.287 7.754s23.785 12.876 33.309 22.569c9.525 9.691 17.065 21.211 22.18 33.89 5.117 12.679 7.708 26.266 7.622 39.972v625.108c0.085 13.706-2.505 27.293-7.622 39.972-5.115 12.679-12.654 24.199-22.18 33.89s-20.848 17.362-33.309 22.568c-12.461 5.205-25.816 7.841-39.287 7.755v0zM921.599 135.443h-819.191v312.553h819.191v-312.553zM921.599 656.367h-819.191v104.185h819.191v-104.185z" />
<glyph unicode="&#xe906;" glyph-name="chevron-down" d="M18.416 714.825c24.555 24.355 64.367 24.355 88.922 0l404.662-401.357 404.665 401.357c24.551 24.355 64.365 24.355 88.916 0 24.558-24.355 24.558-63.841 0-88.195l-449.12-445.455c-24.555-24.355-64.366-24.355-88.922 0l-449.123 445.455c-24.555 24.354-24.555 63.841 0 88.195z" />
<glyph unicode="&#xe907;" glyph-name="chevron-left" d="M778.98 941.585c24.37-24.555 24.37-64.367 0-88.922l-401.592-404.663 401.592-404.662c24.37-24.556 24.37-64.367 0-88.923-24.368-24.554-63.877-24.554-88.247 0l-445.715 449.124c-24.369 24.554-24.369 64.366 0 88.921l445.715 449.124c24.37 24.555 63.879 24.555 88.247 0z" />
<glyph unicode="&#xe908;" glyph-name="chevron-right" d="M245.019-45.586c-24.369 24.556-24.369 64.367 0 88.923l401.592 404.662-401.592 404.663c-24.369 24.555-24.369 64.367 0 88.922s63.878 24.555 88.247 0l445.715-449.124c24.37-24.554 24.37-64.366 0-88.921l-445.715-449.124c-24.369-24.554-63.878-24.554-88.247 0z" />
<glyph unicode="&#xe909;" glyph-name="chevron-up" d="M1005.586 181.78c-24.552-24.299-64.366-24.299-88.926 0l-404.66 400.447-404.663-400.447c-24.555-24.299-64.367-24.299-88.922 0s-24.555 63.696 0 87.995l449.123 444.446c24.555 24.299 64.367 24.299 88.922 0l449.124-444.446c24.552-24.299 24.552-63.696 0-87.995z" />
<glyph unicode="&#xe90a;" glyph-name="close" d="M118.692 939.636c-27.152 27.152-71.175 27.152-98.327 0s-27.152-71.175 0-98.327l393.308-393.309-393.308-393.308c-27.152-27.154-27.152-71.175 0-98.327s71.175-27.152 98.327 0l393.309 393.308 393.308-393.308c27.152-27.152 71.175-27.152 98.327 0s27.152 71.175 0 98.327l-393.308 393.308 393.308 393.308c27.152 27.152 27.152 71.175 0 98.327s-71.175 27.152-98.327 0l-393.308-393.308-393.309 393.308z" />
<glyph unicode="&#xe90b;" glyph-name="electronics" d="M921.295 859.954h-818.591c-27.178-0.2-53.185-11.145-72.403-30.47s-30.102-45.477-30.301-72.806v-617.357c0.199-27.329 11.083-53.481 30.301-72.805 19.218-19.326 45.226-30.271 72.403-30.47h818.591c27.178 0.2 53.185 11.145 72.404 30.47 19.217 19.324 30.102 45.476 30.301 72.805v617.357c-0.199 27.328-11.084 53.481-30.301 72.806-19.219 19.325-45.226 30.27-72.404 30.47v0zM102.705 756.679h511.239v-617.357h-511.239v617.357zM921.295 139.322h-204.647v617.357h204.647v-617.357zM870.323 602.913h-102.704v104.039h102.704v-104.039zM819.351 396.363c-13.659 0.198-26.703 5.742-36.363 15.456-9.66 9.712-15.173 22.83-15.369 36.565v0c0.2 13.664 5.738 26.699 15.418 36.291 9.681 9.59 22.726 14.966 36.315 14.965v0c13.519 0 26.484-5.4 36.043-15.013s14.929-22.649 14.929-36.242c0.002-13.665-5.343-26.782-14.882-36.516s-22.501-15.303-36.089-15.505v0zM819.351 190.577c-13.659 0.198-26.703 5.742-36.363 15.454-9.66 9.714-15.173 22.83-15.369 36.567v0c0.2 13.663 5.738 26.699 15.418 36.29s22.726 14.967 36.315 14.965v0c13.519 0 26.484-5.4 36.043-15.011 9.559-9.613 14.929-22.649 14.929-36.242 0.002-13.665-5.343-26.783-14.882-36.517s-22.501-15.303-36.089-15.504v0zM422.229 242.598c-33.18 1.358-65.104 13.129-91.294 33.659-17.498 11.476-26.627 17.595-36.517 17.595-19.702-3.603-37.197-14.873-48.689-31.365l-76.077 72.676c15.051 18.029 33.617 32.761 54.553 43.287s43.797 16.623 67.171 17.913c33.72-1.616 66.127-13.636 92.814-34.426 10.022-8.557 22.080-14.355 34.995-16.83 19.703 3.604 37.197 14.874 48.689 31.365l76.077-72.674c-15.11-17.96-33.689-32.646-54.614-43.166s-43.756-16.656-67.11-18.034v0zM422.229 499.637c-33.112 1.702-64.936 13.436-91.294 33.66-17.498 11.474-26.627 20.656-36.517 20.656-19.702-3.604-37.197-14.874-48.689-31.366l-76.077 76.501c15.051 18.029 33.617 32.761 54.553 43.287s43.797 16.623 67.171 17.913c33.72-1.616 66.127-13.636 92.814-34.426 10.022-8.557 22.080-14.355 34.995-16.83 19.324 0.274 37.82 7.932 51.733 21.421l76.077-76.5c-16.061-17.071-35.398-30.687-56.845-40.024s-44.554-14.198-67.922-14.291v0z" />
<glyph unicode="&#xe90c;" glyph-name="facebook" d="M890.446 960h-750.322c-16.566-0.087-32.954-3.466-48.226-9.946s-29.13-15.935-40.783-27.821c-11.653-11.886-20.873-25.972-27.133-41.455s-9.438-32.055-9.352-48.778v-768c-0.087-16.723 3.092-33.299 9.352-48.782s15.48-29.569 27.133-41.454c11.653-11.887 25.511-21.339 40.783-27.818 15.272-6.48 31.66-9.86 48.226-9.946h375.157v351.501h-125.485v159.838h125.485v127.999c-0.351 50.545 19.166 99.167 54.265 135.218s82.922 56.586 132.993 57.111h125.485v-159.832h-65.703c-34.165 0-62.413 0-62.413-32.497v-127.999h156.371l-65.701-159.838h-93.958v-351.501h187.907c16.536 0.086 32.894 3.47 48.129 9.958s29.054 15.951 40.656 27.845c11.6 11.894 20.752 25.989 26.94 41.468s9.283 32.038 9.111 48.729v768c0.383 32.706-11.776 64.293-33.941 88.152-22.167 23.858-52.616 38.138-84.976 39.848z" />
<glyph unicode="&#xe90d;" glyph-name="gamepad" d="M964.786 637.743l57.675-407.008c2.939-19.3 1.657-39.009-3.758-57.766s-14.831-36.116-27.603-50.882-28.594-26.585-46.375-34.645c-17.782-8.059-37.099-12.167-56.622-12.040-35.917 0.201-70.305 14.568-95.69 39.98l-119.938 119.284h-319.184l-121.905-118.628c-12.529-12.642-27.431-22.683-43.853-29.545s-34.038-10.408-51.836-10.436c-19.425-0.003-38.624 4.164-56.299 12.221s-33.414 19.814-46.152 34.479c-12.738 14.665-22.179 31.894-27.684 50.522s-6.945 38.221-4.224 57.454l59.642 407.008c7.115 50.729 32.327 97.177 70.989 130.781s88.17 52.1 139.396 52.078h482.38c51.3 0.043 100.892-18.43 139.664-52.023s64.116-80.051 71.377-130.835zM901.106 184.915c3.86 1.817 7.258 4.486 9.936 7.807v-0.656c2.936 2.998 5.165 6.613 6.525 10.581s1.818 8.191 1.34 12.359l-59.643 408.975c-4.034 25.128-16.854 48.008-36.176 64.57s-43.895 25.731-69.345 25.875h-482.38c-25.413-0.273-49.918-9.489-69.213-26.028s-32.151-39.345-36.308-64.417l-58.33-408.975c-0.716-4.122-0.436-8.354 0.82-12.345 1.254-3.991 3.445-7.623 6.389-10.595 2.609-3.397 5.993-6.122 9.871-7.946 3.876-1.824 8.132-2.695 12.414-2.541 7.806 0.139 15.282 3.177 20.973 8.52l150.743 151.399h407.664l151.399-150.743c5.619-5.456 13.141-8.512 20.973-8.52 4.266-0.053 8.488 0.864 12.348 2.681zM299.596 660.715h53.743v-106.177h106.176v-53.088h-106.176v-106.831h-53.743v106.831h-106.176v53.088h106.176v106.177zM778.643 394.529c29.319 0 53.088 23.768 53.088 53.088s-23.768 53.088-53.088 53.088-53.088-23.768-53.088-53.088c0-29.32 23.768-53.088 53.088-53.088zM725.611 607.626c0-29.319-23.768-53.088-53.088-53.088s-53.088 23.768-53.088 53.088c0 29.32 23.768 53.089 53.088 53.089s53.088-23.768 53.088-53.089z" />
<glyph unicode="&#xe90e;" glyph-name="headphones" d="M512 959.999c-135.791 0-266.021-53.943-362.038-149.962-96.019-96.018-149.962-226.247-149.962-362.038v-397.897c0-30.262 12.021-59.285 33.42-80.682 21.398-21.399 50.421-33.42 80.683-33.42h227.474v454.949h-227.474v57.051c0 105.529 41.921 206.735 116.541 281.356s175.827 116.541 281.356 116.541c105.529 0 206.735-41.921 281.356-116.541s116.541-175.827 116.541-281.356v-57.051h-227.474v-454.949h227.474c14.984 0 29.822 2.952 43.665 8.685 13.844 5.734 26.422 14.14 37.018 24.735s19.001 23.173 24.735 37.018c5.733 13.843 8.685 28.681 8.685 43.665v397.897c0 135.791-53.943 266.021-149.962 362.038-96.018 96.019-226.247 149.962-362.038 149.962v0zM227.475 277.576v-227.474h-113.371v227.474h113.371zM909.897 50.102h-113.371v227.474h113.371v-227.474z" />
<glyph unicode="&#xe90f;" glyph-name="home" d="M513.339 750.24l257.004-234.849v-408.433h-101.061v313.813h-309.878v-313.813h-102.4v408.433l256.335 234.849zM513.339 890.469l-513.339-469.698h153.935v-415.241h307.869v310.409h103.069v-310.409h305.192v415.241h153.935l-510.661 469.698z" />
<glyph unicode="&#xe910;" glyph-name="instagram" d="M512.319 867.551h206.589c32.329-0.095 64.38-5.966 94.66-17.335 22.227-8.284 42.332-21.442 58.846-38.519 17.080-16.52 30.201-36.713 38.374-59.064 11.318-30.417 17.376-62.553 17.911-95.018v-415.377c-0.562-32.67-6.618-65.011-17.911-95.658-8.173-22.35-21.293-42.549-38.374-59.067-16.514-17.076-36.62-30.236-58.846-38.518-30.28-11.369-62.331-17.24-94.66-17.336h-413.819c-32.328 0.097-64.38 5.967-94.66 17.336-22.227 8.283-42.332 21.443-58.846 38.518-17.080 16.519-30.2 36.718-38.374 59.067-11.293 30.647-17.349 62.988-17.911 95.658v415.377c0.535 32.465 6.593 64.601 17.911 95.018 8.174 22.351 21.294 42.544 38.374 59.064 16.514 17.076 36.62 30.235 58.846 38.519 30.28 11.369 62.332 17.24 94.66 17.335h207.23zM512.319 960h-211.071c-43.725-0.043-87.074-8.092-127.92-23.754-33.938-13.296-64.754-33.512-90.514-59.369s-45.904-56.797-59.15-90.862c-14.554-39.956-22.546-82.021-23.665-124.549v-423.722c1.119-42.528 9.111-84.593 23.665-124.549 13.102-34.31 33.389-65.397 59.486-91.164 25.546-25.887 56.283-46.020 90.178-59.063 40.934-15.342 84.225-23.385 127.92-23.758 20.898 0 36.315-0.474 55.297-1.058v0c30.398-0.936 69.939-2.152 155.774-2.152h0.104c139.337 0 155.974 0 210.327 3.21 43.694 0.373 86.986 8.416 127.92 23.758 33.896 13.043 64.632 33.176 90.178 59.063 26.097 25.767 46.386 56.854 59.487 91.164 14.554 39.956 22.546 82.021 23.665 124.549v423.722c-1.119 42.528-9.111 84.593-23.665 124.549-13.246 34.065-33.382 65.004-59.143 90.862s-56.583 46.073-90.522 59.369c-40.846 15.662-84.195 23.711-127.92 23.754h-210.431zM512.321 710.258c-52.019 0.127-102.908-15.242-146.221-44.158s-77.109-70.080-97.103-118.284c-19.996-48.203-25.288-101.277-15.218-152.503 10.072-51.228 35.053-98.304 71.791-135.27s83.577-62.161 134.587-72.395c51.011-10.233 103.904-5.045 151.976 14.907s89.161 53.773 118.075 97.179 44.347 94.446 44.347 146.662c0 69.869-27.604 136.89-76.763 186.355-49.161 49.467-115.863 77.338-185.47 77.508zM512.321 274.981c-33.804-0.127-66.883 9.816-95.051 28.573s-50.156 45.489-63.179 76.799c-13.024 31.311-16.495 65.793-9.978 99.088 6.517 33.293 22.731 63.898 46.588 87.934 23.858 24.038 54.287 40.426 87.431 47.092 33.144 6.668 67.508 3.312 98.75-9.643s57.955-34.924 76.749-63.127c18.793-28.202 28.826-61.371 28.826-95.301 0-45.351-17.908-88.855-49.797-120.984-31.887-32.129-75.157-50.261-120.338-50.431zM834.138 684.863c7.028 10.557 10.774 22.973 10.774 35.67 0 17.028-6.736 33.356-18.73 45.395-11.995 12.041-28.267 18.805-45.23 18.805-12.649 0-25.013-3.764-35.533-10.819-10.518-7.054-18.714-17.082-23.555-28.812s-6.106-24.642-3.638-37.097c2.468-12.453 8.559-23.893 17.505-32.872s20.338-15.089 32.745-17.566c12.408-2.478 25.266-1.208 36.953 3.651s21.681 13.087 28.71 23.644z" />
<glyph unicode="&#xe911;" glyph-name="laptop" d="M852.787 168.608c22.531 0 44.139 9.025 60.071 25.090s24.881 37.854 24.881 60.573v473.122c0.001 22.78-8.929 44.637-24.841 60.807s-37.52 25.341-60.111 25.515h-682.23c-22.591-0.174-44.197-9.345-60.11-25.515s-24.843-38.026-24.842-60.807v-473.122c0-22.719 8.951-44.509 24.882-60.573s37.539-25.090 60.070-25.090h-170.558c0-22.895 9.019-44.85 25.074-61.039s37.829-25.284 60.532-25.284h852.789c22.704 0 44.478 9.095 60.532 25.284s25.074 38.144 25.074 61.039h-171.211zM170.557 727.393h682.23v-473.122h-682.23v473.122zM511.672 125.777c-11.265 0-22.069 4.512-30.034 12.545s-12.441 18.926-12.441 30.286 4.475 22.253 12.441 30.286c7.965 8.032 18.769 12.545 30.034 12.545s22.069-4.513 30.036-12.545c7.965-8.033 12.441-18.927 12.441-30.286s-4.475-22.254-12.441-30.286-18.769-12.545-30.036-12.545z" />
<glyph unicode="&#xe912;" glyph-name="lock" d="M255.617 593.767c-24.667-7.174-47.779-19.45-67.71-36.291-16.837-17.338-29.852-37.967-38.218-60.575s-11.898-46.697-10.372-70.735v-315.143c-1.526-24.038 2.006-48.127 10.372-70.735 8.366-22.607 21.382-43.236 38.218-60.574 36.215-30.597 82.927-46.131 130.395-43.363h386.262c47.677-2.929 94.64 12.616 131.011 43.363 16.807 17.257 29.85 37.771 38.317 60.258 8.466 22.489 12.172 46.468 10.888 70.441v316.365c1.284 23.973-2.422 47.952-10.888 70.439-8.467 22.489-21.51 43.001-38.317 60.259-19.405 16.404-41.826 28.482-65.76 35.735v132.166c-2.564 64.045-30.375 124.524-77.433 168.396-47.060 43.872-109.597 67.622-174.13 66.129h-9.841c-64.743 1.819-127.595-21.785-174.921-65.691s-75.307-104.572-77.872-168.834v-131.61zM708.308 601.032c-1.246-0.051-2.494-0.116-3.743-0.193h-386.262c-0.803 0.047-1.606 0.089-2.408 0.126v124.413c2.548 48.285 24.215 93.612 60.276 126.103s83.595 49.51 132.241 47.348h8.61c48.437 1.831 95.655-15.336 131.448-47.792 35.795-32.456 57.288-77.594 59.838-125.659v-124.346zM477.513 137.052c11.302-3.881 23.27-5.481 35.202-4.707 11.739-0.712 23.504 0.922 34.597 4.803s21.289 9.933 29.986 17.796c8.578 8.784 15.244 19.228 19.583 30.681 4.337 11.453 6.257 23.669 5.635 35.89 0.622 12.221-1.298 24.438-5.635 35.891-4.339 11.453-11.005 21.896-19.583 30.681-9.269 8.318-20.182 14.623-32.044 18.514s-24.411 5.282-36.844 4.083c-22.67 0.623-44.705-7.472-61.507-22.597-8.578-8.784-15.244-19.228-19.583-30.681-4.337-11.453-6.255-23.67-5.635-35.891-0.62-12.221 1.298-24.437 5.635-35.89 4.339-11.453 11.005-21.896 19.583-30.681 8.901-7.929 19.31-14.011 30.61-17.891zM483.192 221.513c0 21.987 6.766 28.706 29.523 28.706 22.142 0 28.908-6.107 28.908-28.706 0-22.597-6.15-29.316-28.908-29.316s-29.523 7.329-29.523 29.316zM200.823 404.179v22.598c-1.389 15.601 0.401 31.321 5.262 46.22 4.861 14.901 12.694 28.675 23.032 40.505 25.296 19.719 57.118 29.308 89.186 26.873h386.262c32.127 3.005 64.158-6.647 89.186-26.873 10.793-11.745 19.082-25.537 24.367-40.547 5.285-15.009 7.458-30.925 6.387-46.789v-315.143c1.071-15.865-1.102-31.781-6.387-46.789s-13.574-28.801-24.367-40.546c-24.936-20.445-56.975-30.319-89.186-27.484h-385.647c-32.004-2.671-63.792 7.193-88.57 27.484-10.727 11.744-18.889 25.568-23.97 40.599s-6.972 30.944-5.554 46.737v293.157z" />
<glyph unicode="&#xe913;" glyph-name="menu" d="M0.001 752.158c0 27.997 22.923 50.693 51.2 50.693h921.6c28.277 0 51.2-22.696 51.2-50.693s-22.923-50.693-51.2-50.693h-921.6c-28.277 0-51.2 22.696-51.2 50.693zM256 448c0 27.997 22.923 50.693 51.2 50.693h665.601c28.277 0 51.2-22.697 51.2-50.693s-22.923-50.693-51.2-50.693h-665.601c-28.277 0-51.2 22.697-51.2 50.693zM51.2 194.535c-28.277 0-51.2-22.697-51.2-50.693s22.923-50.693 51.2-50.693h921.6c28.277 0 51.2 22.697 51.2 50.693s-22.923 50.693-51.2 50.693h-921.6z" />
<glyph unicode="&#xe914;" glyph-name="microphone" d="M511.996 312.389c21.078-0.001 41.947 4.236 61.395 12.468 19.449 8.23 37.089 20.291 51.898 35.482s26.491 33.208 34.37 53.007c7.879 19.8 11.795 40.986 11.524 62.33v322.421c0 42.94-16.843 84.12-46.825 114.483s-70.646 47.42-113.045 47.42c-42.399 0-83.064-17.057-113.045-47.42s-46.825-71.543-46.825-114.483v-322.421c-0.181-21.437 3.843-42.695 11.839-62.542s19.804-37.891 34.739-53.081c14.936-15.19 32.702-27.225 52.268-35.407 19.564-8.182 40.539-12.348 61.706-12.256v0zM447.775 803.631c0 17.249 6.766 33.792 18.809 45.989s28.379 19.049 45.411 19.049c17.032 0 33.368-6.852 45.411-19.049s18.809-28.74 18.809-45.989v-334.876c-1.637-16.004-9.073-30.825-20.87-41.599s-27.121-16.739-43.008-16.739c-15.888 0-31.212 5.964-43.009 16.739s-19.234 25.596-20.87 41.599l-0.683 334.876zM794.159 475.676c0.019-37.114-7.333-73.852-21.618-108.031-14.286-34.177-35.214-65.096-61.539-90.916-26.324-25.819-57.508-46.014-91.696-59.382s-70.681-19.634-107.309-18.428c-36.628-1.207-73.122 5.060-107.309 18.428s-65.372 33.562-91.696 59.382c-26.326 25.821-47.253 56.74-61.539 90.916s-21.638 70.916-21.618 108.031h-90.865c2.373-88.958 35.793-174.184 94.327-240.558 58.534-66.371 138.397-109.593 225.411-121.994v-177.124h106.581v175.74c87.297 12.308 167.417 55.691 226.004 122.377s91.816 152.319 93.734 241.559h-90.864z" />
<glyph unicode="&#xe915;" glyph-name="mouse" d="M405.496 461.361c-5.353 5.375-8.359 12.664-8.359 20.265v127.31c-1.214 4.266-1.425 8.755-0.616 13.116 0.807 4.361 2.613 8.473 5.274 12.014 2.659 3.542 6.102 6.413 10.056 8.392s8.309 3.008 12.727 3.008c4.416 0 8.773-1.030 12.727-3.008s7.395-4.851 10.056-8.392c2.659-3.542 4.465-7.654 5.274-12.014 0.807-4.361 0.597-8.85-0.616-13.116v-127.31c0.020-7.234-2.683-14.207-7.569-19.523s-11.592-8.578-18.774-9.136c-7.569 0-14.828 3.019-20.179 8.394zM453.115 750.519c68.387-1.941 134.359-27.445 186.58-72.686 27.36-29.408 48.399-64.157 61.807-102.083s18.896-78.218 16.124-118.367v-94.008c5.085-6.203 9.108-13.509 12.63-20.111l6.037-10.471 10.976 6.062c14.817 9.368 33.476 20.391 51.039 10.471s17.562-32.516 17.012-50.703v-12.126h12.074c18.11 0 40.063 0 50.491-17.085s0-36.374-10.427-51.806l-6.037-10.471 10.427-6.062c15.366-8.267 35.123-19.289 35.123-40.231 0-20.944-19.757-31.966-35.123-40.233l-10.427-6.062 6.037-10.471c9.329-15.432 20.304-34.169 10.427-51.806-9.879-17.636-32.38-17.636-50.491-17.085h-12.074v-12.124c0-17.636 0-40.233-17.012-50.704s-36.222 0-51.039 10.471l-10.976 6.062-6.037-10.471c-8.233-15.432-19.209-34.721-40.063-34.721v0.551c-20.854 0-31.83 19.289-40.062 34.721l-6.037 10.471-10.427-6.062c-14.712-8.97-32.44-19.455-49.335-11.628-49.152-24.433-103.69-36.191-158.67-34.079v-1.102c-78.080-4.848-154.936 21.274-214.033 72.748-27.36 29.406-48.399 64.155-61.806 102.081s-18.896 78.219-16.124 118.369v156.066c-2.24 2.794-3.942 5.99-5.011 9.427-1.287 4.137-1.623 8.512-0.983 12.797s2.24 8.369 4.678 11.944c0.416 0.61 0.855 1.204 1.316 1.777v35.602c-2.739 40.147 2.765 80.429 16.17 118.351s34.427 72.673 61.76 102.099c51.947 45.006 117.505 70.479 185.509 72.654v18.826c0 19.289 0 55.112-82.869 55.112h-54.881c-37.113-3.348-74.3 5.552-105.919 25.352-12.21 9.593-21.895 22.042-28.209 36.261s-9.065 29.773-8.012 45.305c0 7.601 3.007 14.89 8.359 20.265s12.611 8.394 20.179 8.394c7.182-0.556 13.889-3.82 18.775-9.135s7.589-12.29 7.568-19.523c0-27.556 0-49.601 82.321-49.601h54.88c39.104 3.434 78.070-7.971 109.213-31.965 11.688-10.196 20.885-22.954 26.88-37.289s8.628-29.861 7.695-45.379v-16.589zM608.962 18.14c1.428-2.522 2.452-5.224 3.062-8.009 4.863 1.556 10.655 5.132 16.517 8.751 9.241 5.705 18.656 11.517 24.883 9.693 6.233-1.826 11.238-11.061 16.236-20.28 5.56-10.26 11.112-20.503 18.338-20.503 7.266 0 12.993 10.512 18.649 20.894 5.022 9.219 9.988 18.334 15.926 19.889s15.035-3.841 24.146-9.248c10.256-6.085 20.531-12.181 26.343-8.388 5.625 3.672 5.486 15.010 5.341 26.753-0.138 11.176-0.279 22.717 4.538 28.36 5.198 6.088 17.687 5.771 29.635 5.465 10.762-0.274 21.086-0.537 25.246 3.903 4.655 4.966-1.64 15.199-8.093 25.688-5.72 9.299-11.565 18.801-10.018 25.016 1.586 6.372 11.201 11.595 20.737 16.775 10.256 5.571 20.423 11.091 20.423 17.946 0 6.944-10.44 12.826-20.834 18.681-9.4 5.297-18.763 10.571-20.326 16.59-1.571 6.308 3.972 15.498 9.487 24.64 6.052 10.032 12.069 20.009 8.624 26.064-3.454 6.068-15.206 5.772-27.266 5.47-10.939-0.276-22.133-0.557-27.614 3.899-5.982 4.864-5.753 17.152-5.533 29.079 0.205 11.052 0.405 21.794-4.346 26.034-5.208 4.649-15.3-1.58-25.607-7.943-9.241-5.705-18.656-11.517-24.882-9.693-6.235 1.826-11.239 11.059-16.236 20.28-5.562 10.26-11.113 20.503-18.338 20.503-7.267 0-12.995-10.514-18.65-20.894-5.022-9.219-9.988-18.334-15.925-19.889-5.939-1.556-15.035 3.841-24.147 9.248-10.256 6.085-20.531 12.181-26.343 8.388-5.623-3.672-5.484-15.010-5.341-26.754 0.138-11.175 0.279-22.715-4.538-28.359-5.198-6.088-17.686-5.771-29.635-5.467-10.762 0.275-21.084 0.538-25.246-3.901-4.633-4.944 1.736-15.261 8.223-25.764 5.805-9.402 11.703-18.953 9.889-24.94-1.792-5.911-10.868-10.985-20.041-16.113-10.495-5.868-21.119-11.807-21.119-19.158 0-7.294 10.61-13.043 21.087-18.72 9.314-5.047 18.523-10.035 20.073-16.001 1.556-5.996-3.884-15.073-9.354-24.2-6.096-10.171-12.228-20.404-8.758-26.504 3.454-6.068 15.206-5.772 27.266-5.47 10.941 0.275 22.133 0.557 27.614-3.899 5.983-4.864 5.755-17.152 5.533-29.080-0.053-2.866-0.105-5.711-0.072-8.428 4.276-2.491 7.888-6.058 10.446-10.404zM425.662-4.457c48.371-2.123 96.424 8.49 139.404 30.749v9.447h-12.073c-18.112 0-39.515 0-50.491 17.085s0 36.374 10.427 51.806l6.037 10.471-10.427 6.062c-15.367 8.267-34.575 19.289-34.575 40.231 0 20.944 19.207 31.965 34.575 40.233l10.427 6.062-6.037 10.471c-9.33 15.432-20.306 34.169-10.427 51.806s32.379 17.636 50.491 17.085h12.073v11.574c0 17.635 0 40.231 17.013 50.703s36.22 0 51.588-10.471l10.427-6.062 6.037 10.471c3.518 6.595 7.537 13.894 12.614 20.091v7.845c-78.621-9.892-157.814-14.614-237.071-14.128-78.339-0.238-156.606 4.397-234.352 13.88v-141.182c-2.565-32.364 1.411-64.913 11.691-95.694s26.651-59.156 48.128-83.421c48.866-40.385 111.434-60.142 174.519-55.113zM662.745 427.449v29.934c2.165 32.551-2.262 65.207-13.015 95.991-10.753 30.786-27.609 59.063-49.548 83.124-48.865 40.384-111.433 60.142-174.52 55.112-63.086 5.031-125.654-14.728-174.519-55.112-21.451-24.283-37.805-52.661-48.083-83.437s-14.27-63.317-11.736-95.678v-30.205c77.749-9.551 156.009-14.375 234.352-14.443 79.263-0.183 158.448 4.732 237.071 14.713zM620.786 75.263c2.676-2.686 6.305-4.195 10.089-4.195v1.653c2.222-0.088 4.431 0.367 6.439 1.327s3.752 2.396 5.085 4.184l115.798 147.702c2.585 2.759 4.024 6.406 4.024 10.195s-1.439 7.436-4.024 10.196c-1.502 1.186-3.227 2.058-5.070 2.563s-3.77 0.633-5.664 0.376c-1.893-0.257-3.717-0.894-5.361-1.872s-3.076-2.278-4.21-3.822l-117.993-149.353c-2.020-2.504-3.176-5.598-3.293-8.818 0-3.801 1.502-7.446 4.179-10.133zM614.914 192.267c6.998-7.029 16.491-10.977 26.388-10.977s19.39 3.948 26.388 10.977c6.998 7.028 10.93 16.56 10.93 26.5s-3.932 19.472-10.93 26.5-16.491 10.977-26.388 10.977c-9.898 0-19.39-3.95-26.388-10.977s-10.93-16.561-10.93-26.5c0-9.94 3.932-19.472 10.93-26.5zM632.521 218.767c0 8.818 1.647 8.818 8.782 8.818v-1.653c1.088 0 2.049 0.038 2.895 0.072 4.703 0.189 5.885 0.236 5.885-7.237 0-4.409 0-6.614-1.097-7.717s-3.293-1.102-7.683-1.102-6.586 0-7.683 1.102c-1.099 1.103-1.099 3.308-1.099 7.717zM717.159 76.831c6.137-4.118 13.351-6.315 20.733-6.315v-1.653c5.159-0.458 10.354 0.255 15.203 2.083 4.848 1.83 9.225 4.731 12.807 8.486 3.583 3.757 6.279 8.274 7.889 13.217 1.612 4.943 2.096 10.186 1.419 15.342 0 7.412-2.19 14.658-6.29 20.821s-9.928 10.967-16.748 13.804c-6.818 2.836-14.321 3.578-21.561 2.133-7.24-1.447-13.888-5.016-19.108-10.258-5.219-5.24-8.773-11.918-10.214-19.188-1.439-7.269-0.701-14.804 2.124-21.652s7.608-12.702 13.745-16.82zM729.111 107.992c0 8.818 1.647 8.818 8.782 8.818v-1.653c1.088 0 2.049 0.038 2.895 0.073 4.703 0.187 5.885 0.236 5.885-7.238 0-4.409 0-6.614-1.097-7.715-1.097-1.103-3.293-1.103-7.683-1.103-8.782 0-8.782 0-8.782 8.818z" />
<glyph unicode="&#xe916;" glyph-name="optical-fiber" d="M200.601 15.223c-6.096 0.94-11.781 3.797-16.197 8.213-1.556 1.556-2.918 3.268-4.070 5.102-15.548 10.737-30.572 22.362-44.994 34.843-47.077 51.674-83.127 112.4-105.949 178.472s-31.939 136.103-26.792 205.816c-5.2 69.818 3.889 139.963 26.713 206.15s58.901 127.026 106.029 178.8c104.465 90.412 240.495 135.755 378.313 126.105 136.707 8.833 271.403-36.463 374.994-126.105 47.129-51.774 83.207-112.613 106.030-178.8s31.912-136.333 26.712-206.15c5.225-69.719-3.853-139.77-26.679-205.854s-58.92-126.804-106.063-178.434c-103.591-89.641-238.287-134.937-374.994-126.104-110.638-7.747-220.123 19.946-313.052 77.946zM254.908 52.143c78.298-43.434 168.121-63.65 258.745-57.123 120.745-7.892 239.805 31.636 331.853 110.175 42.521 45.764 75.186 99.779 95.965 158.692s29.23 121.467 24.83 183.781c4.767 62.23-3.257 124.778-23.575 183.788-20.318 59.012-52.5 113.242-94.565 159.349-92.825 78.963-212.959 118.292-334.509 109.511-121.773 8.959-242.18-30.382-335.173-109.511-41.947-46.161-74.007-100.414-94.21-159.425-20.202-59.009-28.12-121.528-23.265-183.712-4.802-62.078 3.142-124.483 23.345-183.377 7.58-22.099 16.825-43.526 27.633-64.11l147.497 145.227c2.663 2.769 5.857 4.974 9.393 6.48s7.34 2.28 11.182 2.28 7.645-0.775 11.181-2.28c3.536-1.506 6.73-3.711 9.394-6.48l9.956-9.956c46.966 96.609 74.692 201.429 81.636 308.624-8.988 3.886-17.112 9.528-23.895 16.591-7.161 7.757-12.722 16.848-16.368 26.757-3.644 9.908-5.299 20.439-4.87 30.986-0.653 21.27 6.961 41.964 21.238 57.743 7.303 7.311 16.004 13.076 25.582 16.952s19.839 5.787 30.17 5.615c10.242 0.237 20.422-1.644 29.902-5.528s18.055-9.683 25.186-17.038c7.193-7.737 12.774-16.825 16.421-26.738s5.284-20.454 4.819-31.005c0.721-21.28-6.901-42.001-21.239-57.743-8.052-8.508-18.084-14.893-29.204-18.584-5.578-92.623-25.737-183.788-59.732-270.128l252.208 248.891c-3.946 9.695-5.975 20.064-5.974 30.531 0.454 10.599 3.039 20.998 7.6 30.578s11.006 18.14 18.949 25.175c14.46 15.62 34.487 24.919 55.752 25.884 10.289 0.152 20.499-1.834 29.982-5.832 9.482-4 18.032-9.923 25.105-17.398 7.609-6.969 13.623-15.498 17.632-25.005s5.919-19.769 5.597-30.083c-0.994-21.064-10.304-40.875-25.884-55.088-14.623-15.392-34.556-24.645-55.752-25.884-10.903-0.072-21.719 1.956-31.858 5.974l-246.9-244.244c85.101 32.334 174.613 51.579 265.483 57.079 3.45 11.074 9.609 21.112 17.92 29.204 16.101 13.743 36.575 21.293 57.743 21.293s41.642-7.552 57.742-21.293c7.341-7.281 13.128-15.976 17.007-25.559 3.877-9.584 5.771-19.857 5.559-30.192 0.238-10.242-1.644-20.422-5.527-29.902s-9.685-18.055-17.039-25.186c-7.735-7.193-16.823-12.774-26.737-16.421s-20.454-5.284-31.005-4.819c-21.27-0.651-41.964 6.961-57.743 21.239-6.911 6.514-12.342 14.436-15.928 23.229-107.754-6.108-213.17-33.872-309.951-81.635l11.946-11.284c2.769-2.663 4.974-5.858 6.48-9.394 1.505-3.536 2.28-7.339 2.28-11.181s-0.775-7.645-2.28-11.181c-1.506-3.536-3.711-6.731-6.48-9.394l-151.249-147.913zM204.555 84.484l137.886 136.148-31.195 31.859-13.937 13.937-17.255 17.92-136.91-135.116c10.835-15.36 22.633-30.069 35.336-44.036 8.47-7.237 17.169-14.143 26.075-20.712zM755.306 358.418c0.813-2.204 2.169-4.169 3.944-5.709 5.082-3.482 11.097-5.344 17.255-5.344s12.176 1.863 17.257 5.344c3.016 3.768 4.66 8.449 4.66 13.274s-1.644 9.508-4.66 13.273c-5.082 3.483-11.097 5.346-17.257 5.346s-12.175-1.863-17.255-5.346c0 0-4.647-5.309-4.647-13.273v-0.664c-0.352-2.323-0.108-4.698 0.702-6.902zM706.847 633.046c2.286-1.030 4.764-1.566 7.271-1.578 0 0 7.3 0 15.928 9.292 4.617 3.993 7.866 9.331 9.293 15.266-0.099 2.463-0.748 4.873-1.897 7.054-1.147 2.182-2.767 4.079-4.74 5.556-3.549 3.543-8.27 5.667-13.274 5.975-6.292-0.975-11.982-4.295-15.928-9.293-4.616-3.993-7.866-9.331-9.292-15.264 0.099-2.464 0.748-4.873 1.895-7.055s2.767-4.079 4.742-5.556c1.67-1.869 3.717-3.366 6.003-4.395zM436.688 697.838c2.060 2.333 3.6 5.080 4.515 8.055s1.186 6.112 0.794 9.201c0.393 3.089 0.122 6.225-0.794 9.2s-2.455 5.722-4.515 8.055c-3.768 3.017-8.449 4.66-13.274 4.66s-9.506-1.642-13.273-4.66c-2.060-2.333-3.6-5.080-4.515-8.055s-1.186-6.111-0.794-9.2c-0.393-3.089-0.122-6.226 0.794-9.201s2.455-5.722 4.515-8.055c1.602-1.88 3.675-3.304 6.009-4.12 2.332-0.816 4.841-0.997 7.265-0.526 7.966 0 11.284 0 13.274 4.647z" />
<glyph unicode="&#xe917;" glyph-name="paper-value" d="M192.421-64h639.158c14.991 0.876 29.14 7.225 39.759 17.844s16.969 24.768 17.844 39.76v667.958c0.010 3.866-0.743 7.698-2.215 11.273s-3.635 6.824-6.363 9.563l-284.343 269.636c-5.571 4.989-12.746 7.816-20.223 7.966h-383.617c-14.992-0.876-29.14-7.226-39.759-17.845s-16.969-24.767-17.845-39.759v-908.792c0.876-14.993 7.225-29.142 17.845-39.76s24.767-16.968 39.759-17.844zM833.416-5.783l-637.318 0.611v903.891h337.038v-125.583c-0.693-22.595 3.183-45.097 11.397-66.156 8.214-21.061 20.596-40.246 36.402-56.405 16.16-15.808 35.344-28.189 56.405-36.403 21.061-8.212 43.562-12.089 66.156-11.396h129.921v-608.559zM817.51 663.444h-110.337c-15.047-0.704-30.081 1.65-44.194 6.915-14.114 5.266-27.013 13.337-37.922 23.725-10.388 10.91-18.458 23.809-23.725 37.923-5.266 14.112-7.619 29.146-6.916 44.193v94.113l223.094-206.869zM663.050 40.831c2.999-0.167 6.001 0.281 8.82 1.315s5.398 2.632 7.579 4.697c2.18 2.066 3.916 4.554 5.1 7.314s1.793 5.731 1.789 8.735v19.147c18.249 3.123 35.562 10.789 50.265 22.464 8.705 7.619 15.631 17.055 20.29 27.645 4.659 10.588 6.937 22.070 6.674 33.635 0 30.629-13.588 68.054-77.229 79.075v76.266c9.871-2.342 19.381-6.15 28.205-11.331 3.632-2.409 7.897-3.689 12.256-3.678 5.688 0 11.144 2.26 15.165 6.283 4.023 4.021 6.283 9.478 6.283 15.165-0.217 4.039-1.456 7.956-3.599 11.387-2.145 3.429-5.123 6.26-8.659 8.223-15.427 8.547-32.29 14.020-49.652 16.197v14.504c0 5.933-2.357 11.622-6.552 15.816-4.194 4.195-9.883 6.552-15.815 6.552s-11.622-2.357-15.816-6.552c-4.195-4.194-6.552-9.883-6.552-15.816v-13.185c-4.688-0.559-9.334-1.524-13.885-2.889-11.652-3.498-22.38-9.541-31.41-17.692-9.032-8.151-16.138-18.207-20.808-29.44-4.669-11.235-6.783-23.365-6.191-35.517 0-29.515 12.57-66.136 72.294-77.343v-80.239c-14.949 3.177-29.149 9.443-41.655 18.476-4.128 2.877-9.061 4.378-14.095 4.289-2.867 0.082-5.723-0.413-8.395-1.454-2.674-1.040-5.111-2.607-7.168-4.607s-3.692-4.393-4.808-7.036c-1.116-2.642-1.69-5.483-1.688-8.351-0.132-4.276 0.951-8.501 3.119-12.187s5.337-6.685 9.137-8.648c19.788-12.992 42.236-21.169 65.554-24.010v-15.149c-0.001-5.746 2.238-11.267 6.243-15.386 4.007-4.121 9.462-6.516 15.205-6.675zM641.602 320.755v-69.993c-22.089 5.97-25.721 15.034-25.721 33.908 0 17.879 9.128 30.542 25.721 36.086zM686.337 122.665v74.021c26.182-5.661 30.656-14.835 30.656-35.803 0-18.694-11.314-32.215-30.656-38.217zM311.912 51.25c-7.638 0-14.964 3.034-20.366 8.436s-8.435 12.727-8.435 20.366v594.422c0 7.639 3.034 14.965 8.435 20.366s12.728 8.436 20.366 8.436c7.696 0.001 15.086-3.013 20.587-8.398 5.499-5.383 8.667-12.709 8.828-20.404v-594.422c-0.161-7.695-3.329-15.021-8.828-20.405-5.5-5.383-12.891-8.398-20.587-8.397zM455.308 51.25c-7.638 0-14.964 3.034-20.366 8.436-5.401 5.401-8.435 12.727-8.435 20.366v367.683c0 7.639 3.034 14.965 8.435 20.366s12.728 8.436 20.366 8.436c7.698 0.001 15.088-3.013 20.587-8.398 5.499-5.383 8.669-12.709 8.828-20.404v-367.683c0.083-3.887-0.62-7.749-2.068-11.355s-3.612-6.883-6.361-9.631-6.024-4.912-9.631-6.361c-3.606-1.448-7.468-2.152-11.355-2.068v0.613z" />
<glyph unicode="&#xe918;" glyph-name="pc" d="M852.209 189.601h-681.052c-23.969-1.697-48.015 1.933-70.444 10.635s-42.696 22.264-59.372 39.73c-29.253 38.808-43.773 86.911-40.927 135.596v258.279c-3.117 48.916 11.422 97.317 40.927 136.242 16.431 17.29 36.362 30.797 58.435 39.6s45.765 12.695 69.463 11.409h682.971c23.697 1.286 47.391-2.606 69.463-11.409s42.004-22.31 58.434-39.6c30.589-38.222 46.080-86.525 43.486-135.596v-258.278c3.113-49.019-11.675-97.49-41.567-136.242-16.597-17.575-36.85-31.21-59.299-39.92-22.45-8.711-46.535-12.277-70.516-10.445v0zM171.157 762.335c-15.663 1.528-31.466-0.459-46.279-5.817s-28.272-13.955-39.411-25.177c-20.245-27.95-29.785-62.354-26.858-96.855v-258.278c-2.697-34.479 6.821-68.804 26.858-96.855 11.223-11.069 24.71-19.522 39.514-24.765s30.565-7.149 46.177-5.583h681.052c15.614-1.611 31.388 0.274 46.199 5.52s28.295 13.723 39.491 24.827c20.037 28.051 29.556 62.376 26.859 96.855v258.278c2.927 34.501-6.614 68.905-26.859 96.855-11.139 11.221-24.597 19.819-39.411 25.177s-30.618 7.344-46.279 5.817h-681.052zM668.038 74.667h-312.069c-7.75 0.164-15.138 3.347-20.619 8.882s-8.633 12.994-8.797 20.821c0.168 7.764 3.34 15.155 8.838 20.586s12.885 8.472 20.578 8.471h312.069c7.632 0 14.952-3.061 20.347-8.51 5.397-5.45 8.428-12.841 8.428-20.546 0.002-7.768-3.009-15.226-8.388-20.778s-12.698-8.757-20.388-8.925v0z" />
<glyph unicode="&#xe919;" glyph-name="phone-arrow-up" d="M677.897-63.44h-334.275c-22.717-1.865-45.571 0.935-67.202 8.231-21.631 7.298-41.596 18.944-58.709 34.245-15.452 17.687-27.101 38.461-34.201 60.989s-9.493 46.316-7.027 69.838v679.627c-1.692 22.866 1.188 45.845 8.465 67.55s18.801 41.689 33.877 58.747c16.801 15.499 36.53 27.358 57.985 34.855s44.187 10.476 66.812 8.754h334.275c22.766 1.955 45.686-0.856 67.343-8.259s41.589-19.242 58.568-34.784c15.445-16.987 27.314-37.001 34.883-58.815 7.567-21.815 10.674-44.97 9.13-68.048v-679.627c2.001-23.236-0.726-46.642-8.011-68.76s-18.97-42.476-34.332-59.802c-17.187-15.837-37.354-27.967-59.282-35.657s-45.163-10.781-68.299-9.086zM343.622 902.764c-77.441 0-111.426-34.548-111.426-113.271v-679.627c0-82.122 30.085-113.27 111.426-113.27h334.275c80.783 0 111.426 30.582 111.426 113.27v679.627c3.027 31.272-5.957 62.523-25.070 87.218-24.355 19.775-55.333 29.121-86.355 26.052h-334.275zM510.148 57.78c-7.461-0.331-14.912 0.867-21.911 3.524-7.19 2.728-13.749 6.938-19.263 12.364-5.040 5.746-8.874 12.477-11.268 19.779-2.395 7.304-3.3 15.026-2.661 22.698-0.492 7.567 0.611 15.154 3.237 22.252s6.713 13.545 11.988 18.907c5.275 5.361 11.617 9.517 18.599 12.186s14.446 3.792 21.889 3.291c7.466 0.595 14.969-0.459 21.996-3.095 7.026-2.635 13.406-6.788 18.701-12.171 5.296-5.382 9.38-11.868 11.972-19.010s3.631-14.77 3.044-22.36c0.825-15.54-4.375-30.79-14.485-42.477-5.579-5.499-12.229-9.75-19.52-12.481-7.134-2.673-14.73-3.831-22.317-3.407zM521.485 787.184c-3.366 1.564-7.026 2.368-10.727 2.358-3.953-0.234-7.793-1.438-11.188-3.509s-6.248-4.947-8.31-8.384l-167.139-197.658c-4.267-4.596-6.657-10.67-6.685-16.991 0.697-6.505 3.778-12.507 8.631-16.81 4.851-4.302 11.118-6.592 17.554-6.41h75.211v-255.427c-0.316-1.492-0.316-3.037 0-4.53 0.715-11.618 5.8-22.51 14.203-30.419 8.401-7.908 19.475-12.227 30.925-12.058h93.597c6.385-0.647 12.832 0.098 18.912 2.184s11.652 5.467 16.343 9.915c4.693 4.449 8.398 9.864 10.869 15.884s3.651 12.505 3.461 19.024v255.427h70.755c6.107 0.075 12.006 2.273 16.713 6.23 5.057 4.579 8.173 10.971 8.692 17.835s-1.597 13.666-5.907 18.978l-167.137 197.657c-2.414 2.853-5.407 5.139-8.773 6.704zM510.758 723.845l111.426-131.961-40.67-2.831c-6.753-0.145-13.189-2.936-17.964-7.791s-7.522-11.397-7.664-18.262v-276.947h-85.241v276.947c0.306 3.635-0.126 7.294-1.268 10.751-1.144 3.458-2.974 6.64-5.377 9.348-2.402 2.709-5.328 4.886-8.593 6.397-3.265 1.513-6.801 2.324-10.389 2.389h-45.684l111.424 131.961z" />
<glyph unicode="&#xe91a;" glyph-name="phone-dollar-center" d="M682.428-63.334h-340.909c-23.047-2.035-46.267 0.644-68.246 7.872s-42.256 18.856-59.595 34.174c-15.351 17.452-27.035 37.813-34.356 59.873s-10.129 45.368-8.258 68.536v681.82c-3.122 46.209 12.202 91.772 42.614 126.704 17.202 15.621 37.416 27.56 59.4 35.083s45.275 10.473 68.441 8.667h340.909c23.22 1.961 46.593-0.859 68.68-8.286s42.414-19.304 59.73-34.896c15.246-17.272 26.832-37.455 34.058-59.33s9.943-44.989 7.987-67.942v-681.82c1.872-23.3-0.987-46.738-8.409-68.903s-19.25-42.6-34.774-60.075c-17.317-15.143-37.521-26.625-59.393-33.754-21.874-7.129-44.964-9.756-67.879-7.722zM341.519 902.576c-79.546 0-113.637-34.091-113.637-113.636v-681.82c0-82.387 30.682-113.638 113.637-113.638h340.909c82.387 0 113.638 30.682 113.638 113.638v681.82c1.729 15.462 0.36 31.114-4.032 46.040-4.39 14.926-11.712 28.828-21.538 40.891-12.112 10.171-26.162 17.781-41.299 22.371s-31.046 6.064-46.769 4.334h-340.909zM511.393 57.681c-7.608-0.332-15.208 0.87-22.347 3.534-7.333 2.738-14.021 6.962-19.645 12.405-5.067 5.696-8.937 12.355-11.378 19.579s-3.401 14.864-2.826 22.467c-0.503 7.592 0.623 15.203 3.3 22.325s6.846 13.587 12.227 18.967c5.379 5.379 11.846 9.548 18.967 12.225s14.732 3.803 22.323 3.302c7.614 0.598 15.266-0.461 22.431-3.104 7.165-2.645 13.672-6.81 19.073-12.21s9.566-11.908 12.209-19.073c2.645-7.164 3.704-14.817 3.106-22.431 0.497-7.642-0.553-15.306-3.092-22.531s-6.511-13.863-11.681-19.515c-5.689-5.516-12.471-9.782-19.908-12.522-7.276-2.68-15.021-3.843-22.759-3.417zM512.009 317.96c-51.637-3.78-102.679 12.961-142.046 46.591-17.75 19.481-31.339 42.376-39.936 67.289s-12.022 51.317-10.064 77.599c-1.902 26.364 1.546 52.838 10.139 77.836 8.591 24.996 22.151 47.996 39.861 67.618 39.573 33.21 90.517 49.715 142.046 46.023 51.359 3.724 102.138-12.794 141.477-46.023 17.737-19.602 31.314-42.6 39.908-67.602s12.028-51.487 10.091-77.852c1.959-26.282-1.466-52.686-10.063-77.599s-22.187-47.808-39.936-67.289c-39.13-33.65-90.010-50.406-141.477-46.591zM506.659 663.141c-39.218 1.51-77.722-11.279-108.288-36.090-13.844-16.090-24.342-34.779-30.878-54.974-6.538-20.195-8.98-41.49-7.19-62.64-1.868-21.244 0.537-42.645 7.076-62.944s17.076-39.080 30.992-55.239c30.686-24.566 69.092-37.315 108.262-36.057-0.399 0.151-0.794 0.317-1.182 0.5-2.12 0.998-3.994 2.452-5.486 4.257-1.492 1.807-2.569 3.919-3.15 6.189s-0.654 4.639-0.214 6.94v14.773c-21.465 2.115-42.018 9.748-59.66 22.159-2.832 1.701-5.165 4.122-6.761 7.016s-2.401 6.157-2.329 9.462c0 4.972 1.975 9.741 5.492 13.258s8.286 5.492 13.258 5.492c4.234-0.377 8.319-1.741 11.933-3.978 11.571-7.781 24.475-13.368 38.068-16.478v71.023c-52.272 9.092-63.068 40.909-63.068 65.909-0.48 17.464 5.819 34.436 17.576 47.359s28.061 20.792 45.492 21.96v14.204c-0.44 2.301-0.367 4.671 0.214 6.94s1.657 4.383 3.15 6.189c1.492 1.805 3.366 3.259 5.486 4.257 0.396 0.187 0.8 0.357 1.208 0.511zM625.645 627.051c-30.376 24.943-68.827 37.764-107.966 36.133 0.449-0.164 0.891-0.348 1.325-0.553 2.12-0.998 3.992-2.452 5.486-4.257 1.492-1.807 2.567-3.919 3.15-6.189 0.581-2.269 0.654-4.639 0.212-6.94v-11.933c15.977-1.883 31.424-6.903 45.455-14.772 3.3-1.947 5.967-4.807 7.68-8.234s2.401-7.276 1.979-11.084c0.076-2.436-0.338-4.861-1.217-7.133-0.881-2.272-2.207-4.343-3.903-6.093-1.697-1.748-3.727-3.139-5.97-4.089-2.244-0.948-4.656-1.437-7.092-1.435-3.638 0.276-7.15 1.447-10.228 3.408-8.324 4.634-17.341 7.895-26.704 9.659v-65.341c56.819-8.523 68.751-41.476 68.751-68.181 0.29-9.933-1.593-19.807-5.519-28.935s-9.798-17.287-17.209-23.906c-13.189-10.688-29.156-17.389-46.023-19.318v-14.773c0.442-2.301 0.369-4.671-0.212-6.94s-1.657-4.383-3.15-6.189c-1.494-1.805-3.366-3.259-5.486-4.257-0.423-0.199-0.854-0.379-1.29-0.54 39.086-1.371 77.432 11.409 107.931 36.096 14.33 15.951 25.25 34.661 32.089 54.984 6.84 20.322 9.454 41.829 7.683 63.198 1.693 21.276-0.961 42.674-7.798 62.894s-17.715 38.836-31.974 54.72zM470.465 562.291c0-7.387 0-21.023 26.137-28.978v60.795c-7.472-1.235-14.242-5.142-19.049-10.995-4.808-5.853-7.326-13.252-7.088-20.822zM527.852 489.563v-64.774c8.493 0.84 16.377 4.781 22.143 11.072 5.767 6.29 9.008 14.487 9.108 23.020 0 12.5-3.978 24.431-31.251 30.682z" />
<glyph unicode="&#xe91b;" glyph-name="phone-dollar" d="M455.428-63.451c-23.144-1.84-46.424 0.963-68.469 8.245s-42.414 18.897-59.908 34.161c-15.367 17.449-27.086 37.796-34.469 59.843s-10.278 45.35-8.517 68.533v183.966c-58.105 2.943-113.866 25.356-158.041 64.086-24.023 25.62-42.507 55.916-54.301 88.999-11.793 33.081-16.642 68.238-14.245 103.278-2.34 35.122 2.535 70.35 14.323 103.517s30.241 63.571 54.222 89.338c44.382 38.381 100.127 60.565 158.173 63.491 0.26 17.843 3.262 35.573 8.923 52.56 7.279 21.835 18.811 42.012 33.93 59.366 17.402 15.47 37.729 27.295 59.778 34.779s45.375 10.471 68.599 8.788h340.402c23.183 1.761 46.487-1.135 68.533-8.517s42.395-19.102 59.844-34.469c15.19-17.424 26.763-37.697 34.044-59.637s10.123-45.11 8.362-68.159v-681.387c1.761-23.183-1.135-46.485-8.517-68.533s-19.103-42.394-34.469-59.843c-17.424-15.192-37.698-26.764-59.638-34.045-21.94-7.279-45.11-10.122-68.159-8.36h-340.402zM342.153 291.244v-183.915c0-81.905 30.207-112.693 112.694-112.693h340.402c81.905 0 112.693 30.787 112.693 112.693v681.387c3.104 31.081-6.069 62.143-25.559 86.553-24.292 19.753-55.387 29.144-86.553 26.14h-340.402c-74.825 0-108.149-28.847-112.257-97.408 58.023-2.939 113.743-25.119 158.108-63.487 23.981-25.767 42.435-56.171 54.222-89.338 11.789-33.167 16.663-68.396 14.323-103.517 2.398-35.039-2.45-70.197-14.244-103.278-11.794-33.083-30.278-63.378-54.301-88.999-44.449-38.972-100.631-61.421-159.127-64.139zM313.652 745.743c-53.435 4.143-106.376-12.74-147.547-47.053-18.241-20.421-32.129-44.347-40.818-70.312-8.689-25.967-11.996-53.432-9.72-80.719-2.264-27.197 1.050-54.572 9.741-80.443s22.573-49.693 40.797-70.009c41.202-34.257 94.119-51.133 147.547-47.051 53.247-4.051 105.972 12.829 146.966 47.051 18.223 20.316 32.107 44.139 40.796 70.009 8.691 25.871 12.006 53.245 9.741 80.443 2.276 27.287-1.031 54.751-9.721 80.719-8.688 25.966-22.576 49.891-40.817 70.312-40.994 34.222-93.719 51.102-146.966 47.053zM300.868 378.614c-3.378 3.378-5.275 7.958-5.275 12.734v16.466c-24.604 2.57-48.219 11.469-68.488 25.945-4.108 2.384-7.31 6.061-9.108 10.457-1.796 4.394-2.087 9.261-0.827 13.84s4.001 8.61 7.796 11.466 8.428 4.375 13.176 4.32c4.974-0.301 9.781-1.905 13.941-4.647 13.085-9.196 27.929-15.445 43.51-18.41v78.683c-59.91 11.909-72.555 48.078-72.555 77.4-0.159 11.481 2.133 22.864 6.722 33.39s11.372 19.952 19.893 27.648c8.521 7.698 18.586 13.488 29.523 16.987 5.353 1.712 10.856 2.855 16.415 3.422v14.974c0 4.776 1.897 9.356 5.275 12.734 3.376 3.376 7.956 5.274 12.733 5.274s9.356-1.897 12.733-5.274c3.378-3.378 5.275-7.958 5.275-12.734v-16.304c18.221-2.436 35.834-8.521 51.756-17.961 3.667-1.834 6.751-4.655 8.906-8.142 2.155-3.489 3.294-7.509 3.293-11.609 0-2.746-0.541-5.465-1.592-8.002s-2.591-4.842-4.533-6.785c-1.941-1.941-4.247-3.482-6.785-4.533-2.537-1.050-5.256-1.592-8.002-1.592-4.315-0.023-8.547 1.185-12.199 3.486-9.623 5.509-20.047 9.375-30.844 11.485v-74.275c65.182-9.829 79.059-47.705 79.059-78.366-0.088-10.967-2.456-21.795-6.956-31.797-4.501-10-11.034-18.956-19.185-26.293-15.5-11.963-33.761-19.583-52.917-22.272v-18.978c0-4.776-1.897-9.356-5.275-12.734-3.376-3.376-7.956-5.274-12.733-5.274s-9.356 1.897-12.733 5.274zM295.593 574.015v69.337c-18.767-4.525-29.569-17.155-29.569-35.904 0-8.291 0-24.364 29.569-33.432zM331.608 525.573v-74.897c22.655 4.798 36.073 18.842 36.073 38.851 0 21.854-4.892 30.367-36.073 36.046zM602.257 60.476c7.472-2.589 15.436-3.449 23.289-2.515 7.854-0.433 15.714 0.734 23.103 3.43s14.153 6.865 19.883 12.253c5.212 5.708 9.232 12.399 11.826 19.679s3.708 15.007 3.277 22.725c0.715 7.807-0.297 15.676-2.964 23.047-2.667 7.373-6.922 14.068-12.466 19.611s-12.238 9.8-19.611 12.466c-7.371 2.667-15.24 3.679-23.047 2.965-7.831 0.821-15.745-0.117-23.166-2.746s-14.162-6.881-19.73-12.449c-5.566-5.568-9.82-12.307-12.449-19.73-2.629-7.421-3.566-15.335-2.744-23.166-0.935-7.853-0.075-15.816 2.515-23.289 2.588-7.474 6.839-14.261 12.431-19.854s12.38-9.844 19.854-12.431z" />
<glyph unicode="&#xe91c;" glyph-name="phone" d="M682.429-63.334h-340.91c-23.047-2.035-46.267 0.644-68.246 7.872s-42.255 18.856-59.595 34.174c-15.351 17.452-27.035 37.813-34.356 59.873s-10.129 45.368-8.258 68.536v681.82c-3.122 46.209 12.202 91.772 42.614 126.704 17.202 15.621 37.416 27.56 59.4 35.083s45.275 10.473 68.441 8.667h340.91c23.218 1.961 46.592-0.859 68.678-8.286s42.416-19.304 59.73-34.896c15.246-17.272 26.832-37.455 34.058-59.33s9.945-44.989 7.987-67.942v-681.82c1.874-23.3-0.987-46.738-8.409-68.903-7.42-22.165-19.248-42.6-34.772-60.075-17.319-15.143-37.522-26.625-59.395-33.754s-44.964-9.756-67.878-7.722zM341.519 902.576c-79.545 0-113.636-34.091-113.636-113.636v-681.82c0-82.387 30.682-113.638 113.636-113.638h340.91c82.387 0 113.636 30.682 113.636 113.638v681.82c1.729 15.462 0.36 31.114-4.030 46.040s-11.713 28.828-21.538 40.891c-12.114 10.171-26.163 17.781-41.299 22.371-15.138 4.59-31.048 6.064-46.769 4.334h-340.91zM511.395 57.677c-7.608-0.331-15.208 0.87-22.347 3.536-7.332 2.737-14.020 6.96-19.645 12.405-5.067 5.696-8.937 12.354-11.377 19.577-2.442 7.224-3.403 14.864-2.828 22.468-0.502 7.591 0.623 15.202 3.3 22.323s6.846 13.588 12.227 18.967c5.379 5.38 11.846 9.548 18.967 12.227 7.121 2.677 14.732 3.803 22.323 3.3 7.614 0.598 15.268-0.461 22.433-3.104s13.672-6.81 19.071-12.21c5.401-5.399 9.566-11.906 12.21-19.071s3.702-14.819 3.104-22.431c0.499-7.643-0.553-15.307-3.092-22.532s-6.511-13.862-11.681-19.513c-5.689-5.518-12.471-9.782-19.908-12.522-7.275-2.681-15.021-3.843-22.759-3.419z" />
<glyph unicode="&#xe91d;" glyph-name="plane" d="M946.731 766.102l-197.846-182.144c-3.736-3.466-6.552-7.807-8.196-12.63s-2.064-9.981-1.225-15.006l69.088-439.657-24.495-11.305-151.995 321.577c-1.86 4.562-4.858 8.573-8.705 11.652s-8.419 5.12-13.277 5.934c-4.777 0.972-9.716 0.797-14.412-0.514-4.696-1.309-9.013-3.717-12.596-7.022-62.81-55.271-100.493-93.584-133.781-125.615-38.653-42.074-80.664-80.932-125.617-116.195-4.215-3.209-7.57-7.413-9.762-12.235s-3.154-10.115-2.799-15.4l8.164-148.856-18.214-8.792-81.023 134.409c-2.284 4.060-5.516 7.507-9.422 10.050l-121.22 81.021 8.165 13.189 138.179-10.050c5.625-0.745 11.349-0.039 16.624 2.048 5.277 2.089 9.933 5.491 13.523 9.886 34.726 45.213 73.4 87.25 115.567 125.615 32.032 34.544 72.857 72.229 126.873 134.409 3.444 3.523 6.028 7.792 7.554 12.476 1.524 4.685 1.949 9.658 1.24 14.532-1.107 4.744-3.261 9.18-6.303 12.984-3.044 3.804-6.899 6.879-11.284 9l-318.436 146.342 16.33 25.752 439.656-62.81c4.977-0.602 10.026-0.003 14.725 1.745s8.911 4.596 12.283 8.305c66.577 71.602 175.235 188.425 188.425 197.846 6.231 7.995 14.304 14.362 23.529 18.559s19.331 6.099 29.45 5.544c10.121-0.555 19.957-3.552 28.668-8.733s16.038-12.394 21.358-21.022c8.025-6.183 14.437-14.216 18.686-23.412s6.211-19.285 5.718-29.404c-0.493-10.118-3.428-19.967-8.551-28.707-5.125-8.74-12.287-16.11-20.876-21.482l-3.769-1.883zM998.234 911.188c-11.059 14.020-24.979 25.522-40.833 33.737s-33.276 12.957-51.107 13.908-35.66-1.91-52.297-8.394c-16.637-6.482-31.702-16.438-44.188-29.203-14.446-12.562-134.409-141.945-179.003-188.425l-439.657 62.808c-5.914 0.864-11.95 0.023-17.4-2.425s-10.091-6.4-13.375-11.393l-50.875-72.229c-2.418-3.66-4.009-7.805-4.66-12.145s-0.346-8.769 0.891-12.978c1.167-4.319 3.3-8.315 6.237-11.687s6.604-6.034 10.72-7.783l310.272-143.83c-41.453-43.338-70.344-72.858-97.98-99.237-39.824-37.108-76.974-76.986-111.171-119.336l-140.062 10.050c-5.569 0.319-11.123-0.849-16.091-3.388s-9.169-6.356-12.172-11.057l-35.801-54.643c-2.306-3.439-3.893-7.309-4.668-11.377s-0.721-8.251 0.159-12.296c0.879-4.047 2.567-7.874 4.96-11.252 2.393-3.38 5.444-6.24 8.97-8.413l140.691-92.956 92.326-154.508c2.772-4.672 6.729-8.529 11.473-11.176s10.103-3.991 15.535-3.896c4.351-0.898 8.839-0.898 13.189 0l62.808 30.776c5.753 2.738 10.558 7.126 13.801 12.609 3.246 5.482 4.782 11.807 4.413 18.167l-11.934 151.995c42.969 34.617 83.668 71.961 121.848 111.798 27.006 27.008 56.527 57.155 99.865 96.726l147.6-314.042c1.789-3.802 4.324-7.207 7.451-10.012 3.129-2.805 6.789-4.953 10.763-6.319 7.703-2.836 16.164-2.836 23.867 0l73.485 35.802c6.018 3.002 10.915 7.855 13.968 13.848s4.101 12.806 2.99 19.44l-69.088 452.217 184.656 168.325c14.606 11.089 26.608 25.241 35.161 41.464s13.451 34.121 14.349 52.438c0.898 18.317-2.227 36.608-9.151 53.589-6.927 16.981-17.485 32.24-30.936 44.704z" />
<glyph unicode="&#xe91e;" glyph-name="play-square" d="M398.405 675.189v-456.025l284.811 228.836-284.811 227.189zM910.405 960h-796.81c-30.127 0-59.020-11.968-80.324-33.271s-33.271-50.196-33.271-80.324v-796.81c0-30.128 11.968-59.020 33.271-80.324s50.196-33.271 80.324-33.271h796.81c30.128 0 59.020 11.968 80.324 33.271s33.271 50.196 33.271 80.324v796.81c0 30.127-11.968 59.020-33.271 80.324s-50.196 33.271-80.324 33.271v0zM910.405 49.595h-796.81v796.81h796.81v-796.81z" />
<glyph unicode="&#xe91f;" glyph-name="plus-circle" d="M562.803 704.396h-102.4v-204.8h-204.8v-102.4h204.8v-204.8h102.4v204.8h204.8v102.4h-204.8v204.8zM512.001 960c-101.265 0-200.255-30.028-284.453-86.288s-149.822-136.223-188.574-229.779c-38.752-93.556-48.891-196.501-29.136-295.82 19.756-99.318 68.519-190.547 140.123-262.151s162.835-120.368 262.153-140.124 202.265-9.615 295.82 29.136c93.556 38.753 173.518 104.376 229.778 188.575 56.259 84.198 86.287 183.188 86.287 284.451-0.418 135.662-54.496 265.648-150.423 361.576s-225.915 150.005-361.576 150.424v0zM512.001 38.4c-81.012 0-160.203 24.023-227.562 69.031-67.359 45.006-119.858 108.977-150.859 183.823-31.002 74.844-39.113 157.202-23.309 236.655 15.804 79.455 54.815 152.438 112.099 209.723 57.283 57.284 130.267 96.294 209.721 112.099s161.812 7.693 236.657-23.309 138.815-83.502 183.823-150.859c45.008-67.359 69.031-146.55 69.031-227.562-0.211-108.567-43.432-212.629-120.202-289.398s-180.831-119.991-289.398-120.202v0z" />
<glyph unicode="&#xe920;" glyph-name="shopping-cart" d="M526.859 382.785c-12.983-1.671-26.176-0.315-38.548 3.955s-23.586 11.346-32.765 20.668-16.075 20.639-20.148 33.068c-4.072 12.428-5.209 25.629-3.325 38.569v181.059h-157.827c22.289-128.916 48.231-279.814 52.533-307.136 3.163-33.663 17.12-65.406 39.801-90.504 9.507-8.943 20.699-15.908 32.927-20.489s25.245-6.685 38.293-6.192h325.21c35.611 0 85.885 12.557 113.639 119.802 3.37 12.625 10.657 41.799 19.757 78.245l0.001 0.003c7.87 31.516 17.099 68.467 26.326 104.856 10.997 44.99 21.994 88.412 30.374 120.847h-136.65v-179.967c1.975-12.98 0.905-26.24-3.126-38.737-4.032-12.495-10.915-23.885-20.106-33.269s-20.438-16.507-32.856-20.807c-12.418-4.3-25.665-5.659-38.699-3.97h-194.811zM432.073 718.173v144.34c-1.688 12.88-0.407 25.975 3.742 38.286 4.151 12.31 11.063 23.511 20.205 32.747 9.144 9.235 20.28 16.263 32.558 20.544s25.37 5.704 38.282 4.16h194.811c12.955 1.762 26.142 0.49 38.519-3.715s23.608-11.227 32.802-20.513c9.192-9.286 16.098-20.581 20.172-32.991 4.072-12.41 5.201-25.597 3.294-38.518v-144.387h178.544c7.687-0.138 15.012-3.284 20.399-8.763s8.406-12.853 8.404-20.533c0.26-2.434 0.26-4.89 0-7.324-8.379-31.39-23.566-92.598-39.277-156.946-9.227-36.387-18.456-73.337-26.324-104.851l-0.004-0.019c-9.101-36.44-16.385-65.609-19.754-78.231-9.543-44.878-30.872-86.407-61.795-120.325-14.183-14.196-31.105-25.364-49.739-32.828s-38.594-11.069-58.663-10.594h-328.352c-41.314-1.081-81.39 14.144-111.545 42.376-33.128 33.501-53.976 77.183-59.176 123.986-7.331 42.898-75.41 441.016-84.836 494.901-5.103 18.258-16.296 34.228-31.724 45.264s-34.167 16.476-53.114 15.421h-70.174c-7.778 0-15.237 3.086-20.737 8.581s-8.59 12.946-8.59 20.715c0 7.77 3.090 15.222 8.59 20.715s12.959 8.581 20.737 8.581h70.174c32.776 1.475 65.016-8.698 90.996-28.715 25.982-20.017 44.023-48.581 50.922-80.623 2.529-14.143 11.511-65.728 22.777-130.741h167.879zM474.492 862.514v-382.945c0-39.759 12.568-52.316 52.368-52.316h194.811c38.753 0 52.37 12.557 52.37 52.316v382.945c0 39.237-12.568 52.315-52.37 52.315h-194.811c-37.706 0-52.368-14.125-52.368-52.315zM439.411-62.892c-11.245-0.618-22.5 1.007-33.109 4.779s-20.361 9.618-28.686 17.194c-8.302 8.334-14.742 18.331-18.895 29.333s-5.924 22.758-5.195 34.493c-0.729 11.734 1.042 23.491 5.195 34.493s10.593 20.999 18.895 29.331c16.877 15.204 39.099 23.104 61.795 21.973 22.778 0 44.622-9.040 60.729-25.129s25.156-37.912 25.156-60.667-9.050-44.576-25.156-60.669c-16.107-16.090-37.951-25.129-60.729-25.129zM439.411 50.635c-21.472 0-27.756-6.278-27.756-27.727s6.284-27.727 27.756-27.727 27.756 6.277 27.756 27.727c0 21.448-5.761 27.727-27.232 27.727h-0.524zM723.249-62.892c-11.245-0.618-22.5 1.007-33.109 4.779s-20.361 9.618-28.686 17.194c-8.302 8.334-14.742 18.331-18.895 29.333s-5.924 22.758-5.195 34.493c-0.729 11.734 1.042 23.491 5.195 34.493s10.593 20.999 18.895 29.331c16.877 15.204 39.099 23.104 61.795 21.973 22.866 1.215 45.281-6.688 62.318-21.973 8.128-8.435 14.419-18.461 18.476-29.446s5.789-22.689 5.091-34.377c0.698-11.688-1.035-23.393-5.091-34.378s-10.347-21.011-18.476-29.446c-16.906-15.153-39.106-23.046-61.794-21.973h-0.524zM723.249 50.635c-20.948 0-27.756-6.278-27.756-27.727s6.808-27.727 27.756-27.727 27.756 6.277 27.756 27.727c0 21.448-6.284 27.727-27.756 27.727z" />
<glyph unicode="&#xe921;" glyph-name="twitter" d="M1024 762.204c-38.419-16.668-79.074-27.837-120.727-33.158 44.192 26.219 77.084 67.397 92.483 115.772-40.868-24.516-85.88-41.636-132.911-50.547-28.806 30.458-66.347 51.627-107.666 60.713s-84.475 5.659-123.77-9.827c-39.293-15.484-72.878-42.298-96.322-76.904s-35.647-75.378-34.993-116.93c-0.045-15.891 1.624-31.741 4.982-47.286-83.614 4.013-165.389 25.481-239.879 62.971s-139.977 90.141-192.090 154.44c-27.055-45.871-35.471-100.073-23.56-151.769s43.265-97.076 87.797-127.060c-33.24 1.129-65.716 10.078-94.7 26.092v0c-0.089-47.584 16.308-93.784 46.498-131.019 30.189-37.234 72.38-63.29 119.646-73.892-18.107-4.456-36.715-6.648-55.382-6.523-13.187-0.287-26.366 0.805-39.318 3.262 13.276-41.071 39.206-77.089 74.223-103.083s77.393-40.68 121.275-42.038c-73.811-57.697-165.381-89.124-259.743-89.14-16.67-0.033-33.326 1.057-49.845 3.262 95.393-61.445 207.113-93.961 321.215-93.489 78.984-0.006 157.181 15.384 230.056 45.276 72.876 29.894 138.974 73.694 194.463 128.86s99.265 120.601 128.779 192.504 44.185 148.84 43.159 226.351c0 9.241 0 18.48 0 27.177 41.799 28.592 77.846 64.526 106.328 105.988v0z" />
<glyph unicode="&#xe922;" glyph-name="user" d="M801.194 345.731c62.457 0 113.091-51.558 113.091-115.165v-29.465c0-45.798-16.072-90.083-45.313-124.874-78.921-93.892-198.966-140.227-357.139-140.227-158.196 0-278.182 46.349-356.947 140.282-29.154 34.766-45.172 78.986-45.172 124.704v29.579c0 63.606 50.632 115.165 113.090 115.165h578.39zM801.194 268.917h-578.39c-20.798 0-37.659-17.17-37.659-38.35v-29.579c0-27.431 9.61-53.963 27.103-74.827 63.025-75.154 161.883-113.347 299.585-113.347 137.7 0 236.645 38.192 299.832 113.363 17.546 20.872 27.19 47.451 27.19 74.925v29.465c0 21.181-16.861 38.35-37.66 38.35zM511.832 960.001c138.862 0 251.434-114.636 251.434-256.045 0-141.411-112.573-256.047-251.434-256.047-138.863 0-251.436 114.635-251.436 256.047 0 141.409 112.573 256.045 251.436 256.045zM511.832 883.187c-97.205 0-176.005-80.246-176.005-179.232 0-98.989 78.8-179.234 176.005-179.234s176.004 80.245 176.004 179.234c0 98.986-78.8 179.232-176.004 179.232z" />
<glyph unicode="&#xe923;" glyph-name="whatsapp" d="M756.437 344.404c-12.583 7.165-73.105 40.005-84.489 44.781-11.385 4.778-19.772 7.168-28.761-5.372-8.988-12.538-33.558-40.005-41.348-48.364s-14.978-8.957-27.562 0c-36.661 16.296-70.137 38.937-98.869 66.873-26.388 26.947-48.783 57.508-66.51 90.759-6.592 12.538-0.001 19.106 6.59 25.675 6.592 6.567 13.18 14.329 19.771 21.494 5.481 6.001 9.94 12.857 13.189 20.299 1.941 3.468 2.955 7.374 2.955 11.344 0 3.972-1.014 7.877-2.955 11.346 0 6.567-25.771 69.86-35.359 95.535s-20.37 22.092-27.56 22.092h-23.97c-6.416-0.019-12.761-1.353-18.637-3.92-5.876-2.569-11.154-6.315-15.514-11.007-14.822-13.155-26.734-29.24-34.986-47.227s-12.667-37.487-12.954-57.264c2.406-47.938 18.635-94.167 46.74-133.148 48.764-84.847 120.643-154.2 207.321-200.027 125.832-55.529 126.43-38.213 149.799-37.019 17.905 3.239 34.911 10.241 49.892 20.536s27.595 23.647 36.996 39.174c9.067 18.515 12.399 39.298 9.583 59.708 0 5.373-11.38 8.957-23.363 15.525v-1.793zM525.14 45.861c-80.302-0.080-158.774 23.84-225.293 68.667l-157.589-51.349 51.531 154.046c-53.1 74.476-79.524 164.583-75.025 255.832 4.499 91.247 39.657 178.337 99.827 247.267s141.855 115.695 231.92 132.777c90.064 17.082 183.283 3.49 264.659-38.593 81.374-42.084 146.185-110.212 184.008-193.433 37.825-83.222 46.463-176.699 24.534-265.406-21.931-88.706-73.157-167.491-145.447-223.681s-161.444-86.524-253.124-86.126v0zM525.14 957.612c-131.48-0.947-257.205-53.862-349.558-147.121s-143.78-219.234-142.982-350.252c0.084-90.535 24.502-179.393 70.709-257.344l-88.68-266.895 272.631 88.368c73.387-40.172 155.955-60.741 239.68-59.709 129.463 4.469 252.125 58.86 342.126 151.703 89.999 92.843 140.306 216.885 140.306 345.97s-50.306 253.123-140.306 345.966-212.663 147.234-342.126 151.703l-1.799-2.387z" />
<glyph unicode="&#xe924;" glyph-name="covid" d="M593.326 488.082c9.447-0.031 18.798 1.899 27.461 5.668s16.45 9.293 22.869 16.226c6.422 6.932 11.333 15.121 14.419 24.047 3.094 8.927 4.303 18.399 3.545 27.816 0.758 9.417-0.45 18.889-3.545 27.816-3.087 8.927-7.997 17.116-14.419 24.048-6.419 6.933-14.206 12.457-22.869 16.226s-18.014 5.698-27.461 5.668h-6.829c-9.448 0.030-18.799-1.899-27.462-5.668s-16.45-9.293-22.869-16.226c-6.419-6.932-11.329-15.121-14.421-24.048s-4.298-18.399-3.543-27.816c-0.857-9.472 0.275-19.017 3.322-28.026s7.942-17.282 14.371-24.289c6.429-7.008 14.251-12.596 22.965-16.406s18.128-5.758 27.638-5.719l6.829 0.683zM594.692 684.771c16.041 0.198 31.953-2.872 46.769-9.023 14.818-6.152 28.224-15.256 39.404-26.758 11.186-11.502 19.908-25.161 25.638-40.144 5.737-14.983 8.352-30.976 7.703-47.005 1.052-16.279-1.304-32.598-6.912-47.917s-14.342-29.303-25.645-41.060c-11.309-11.757-24.941-21.030-40.031-27.229s-31.302-9.187-47.61-8.773h-8.195c-16.28-0.422-32.467 2.566-47.522 8.772s-28.649 15.491-39.902 27.26c-11.255 11.769-19.924 25.762-25.45 41.080s-7.789 31.623-6.64 47.867c-0.853 16.078 1.628 32.158 7.288 47.232s14.375 28.814 25.598 40.358c11.224 11.544 24.712 20.643 39.621 26.725s30.913 9.015 47.008 8.616h8.878zM370.002 434.812c5.539-0.659 11.157-0.052 16.428 1.774s10.060 4.825 14.005 8.769c3.945 3.945 6.944 8.733 8.769 14.005s2.433 10.889 1.775 16.428c0.491 5.329-0.162 10.702-1.917 15.758s-4.568 9.679-8.254 13.559c-3.687 3.88-8.158 6.928-13.118 8.938s-10.292 2.94-15.638 2.722c-5.322 0.23-10.63-0.694-15.561-2.71s-9.365-5.077-12.998-8.97c-3.635-3.894-6.382-8.529-8.055-13.586s-2.228-10.416-1.632-15.709c-0.475-5.301 0.161-10.645 1.87-15.686s4.45-9.671 8.049-13.593c3.6-3.922 7.979-7.048 12.856-9.179s10.146-3.223 15.47-3.201h-2.049v0.683zM370.002 567.987c11.953 0.009 23.783-2.396 34.783-7.070s20.944-11.52 29.234-20.13c8.291-8.609 14.758-18.803 19.014-29.973s6.212-23.083 5.753-35.026c0.557-11.968-1.332-23.923-5.552-35.134s-10.683-21.447-18.992-30.076c-8.311-8.63-18.292-15.473-29.338-20.114s-22.921-6.979-34.901-6.872h-4.781c-12.178-0.495-24.324 1.562-35.659 6.039s-21.61 11.274-30.163 19.956c-8.553 8.682-15.197 19.056-19.503 30.457s-6.183 23.577-5.506 35.746c-0.558 11.968 1.331 23.922 5.551 35.134s10.684 21.447 18.993 30.076c8.31 8.63 18.292 15.473 29.338 20.114s22.92 6.979 34.901 6.873h6.829zM607.668 249.73c6.849 1.96 13.182 5.402 18.549 10.087s9.638 10.49 12.506 17.012c2.868 6.516 4.265 13.591 4.091 20.707-0.174 7.123-1.915 14.12-5.099 20.492-2.227 10.597-8.088 20.083-16.568 26.817s-19.047 10.293-29.873 10.062c-6.104 1.031-12.337 1.031-18.44 0h-4.781c-6.921-1.848-13.338-5.229-18.776-9.89s-9.76-10.486-12.645-17.043c-2.884-6.556-4.26-13.677-4.023-20.835s2.080-14.178 5.393-20.529c2.209-10.66 8.043-20.229 16.509-27.072 8.465-6.85 19.042-10.558 29.931-10.49 6.126-0.697 12.313-0.697 18.44 0l4.781 0.683zM591.96 404.079c20.985-0.636 41.224-7.925 57.798-20.815s28.615-30.712 34.4-50.894c4.958-12.614 7.294-26.106 6.857-39.656-0.43-13.543-3.62-26.86-9.377-39.133-5.751-12.273-13.946-23.24-24.080-32.241s-21.997-15.838-34.863-20.099h-6.147c-11.079-3.374-22.568-5.211-34.147-5.464-21.516 0.211-42.388 7.376-59.496 20.42-17.11 13.051-29.54 31.279-35.433 51.972-4.943 12.662-7.247 26.197-6.77 39.775 0.478 13.583 3.726 26.923 9.546 39.202s14.089 23.24 24.299 32.208c10.21 8.968 22.145 15.755 35.073 19.943h6.147c10.887 3.101 22.145 4.709 33.464 4.781h2.732zM529.129 149.339c84.685 0 282.054 33.464 282.054 296.4 0 262.934-195.322 297.080-284.103 299.129h-32.099c-84.002 0-279.323-31.416-279.323-297.080 0-88.783 27.318-295.717 282.055-299.132l31.416 0.683zM990.799 479.886c4.214 0 8.386-0.83 12.287-2.444 3.893-1.613 7.43-3.977 10.409-6.958 2.985-2.981 5.347-6.519 6.96-10.414s2.445-8.068 2.445-12.283c-0.171-8.458-3.613-16.522-9.595-22.504s-14.041-9.42-22.503-9.594h-116.101c-1.42-75.903-27.557-149.275-74.441-208.985l73.075-73.075c5.921-6.004 9.24-14.096 9.24-22.537 0-8.434-3.319-16.527-9.24-22.537-6.038-5.914-14.089-9.329-22.537-9.561-8.482 0.089-16.582 3.524-22.537 9.561l-75.807 70.344c-59.798-43.64-130.964-69.018-204.883-73.075v-117.467c-0.175-8.455-3.613-16.521-9.594-22.503s-14.045-9.418-22.504-9.595c-4.546-0.581-9.164-0.185-13.546 1.161-4.38 1.352-8.421 3.62-11.85 6.665-3.429 3.039-6.168 6.775-8.030 10.968-1.863 4.186-2.808 8.721-2.77 13.304v117.467c-75.827 2.943-148.959 28.909-209.665 74.441l-73.758-74.441c-6.173-4.855-13.912-7.28-21.753-6.816-7.841 0.472-15.238 3.797-20.793 9.35s-8.879 12.948-9.346 20.789c-0.465 7.84 1.959 15.585 6.817 21.752l73.758 75.807c-44.545 59.273-69.815 130.791-72.392 204.887h-118.833c-4.487 0.078-8.91 1.077-12.996 2.932s-7.746 4.533-10.755 7.862c-3.009 3.329-5.302 7.24-6.739 11.493s-1.984 8.753-1.609 13.226c-0.091 4.273 0.672 8.52 2.244 12.494s3.923 7.594 6.912 10.647c2.99 3.053 6.559 5.48 10.498 7.135s8.17 2.508 12.444 2.507h119.516c0.074 75.764 23.965 149.588 68.295 211.031l-70.344 72.392c-4.857 6.172-7.282 13.912-6.817 21.753s3.791 15.238 9.346 20.793c5.553 5.553 12.951 8.879 20.793 9.345s15.58-1.959 21.753-6.816l73.075-73.075c61.118 45.151 134.416 70.853 210.348 73.758v116.784c0 9.057 3.598 17.742 10.001 24.145s15.090 10.002 24.146 10.002c9.057 0 17.742-3.597 24.145-10.002s10.002-15.090 10.002-24.145v-118.15c74.047-3.977 145.289-29.626 204.883-73.758l74.441 74.441c6.174 4.857 13.912 7.282 21.752 6.816s15.244-3.791 20.796-9.345c5.552-5.554 8.878-12.953 9.343-20.793s-1.96-15.581-6.816-21.753l-72.392-73.758c47.266-59.808 73.656-133.447 75.124-209.665h116.101z" />
<glyph unicode="&#xe925;" glyph-name="comment-lines" d="M169.994-35.514c-13.706 0.187-26.836 5.549-36.762 14.997-9.927 9.458-15.917 22.306-16.773 35.988v122.368c-33.355 6.422-63.353 24.458-84.667 50.907s-32.564 59.595-31.75 93.552v502.207c0.224 39.066 15.901 76.458 43.606 104.003s65.185 43.006 104.251 43.006h728.244c39.064 0.001 76.546-15.461 104.248-43.006 27.71-27.545 43.389-64.935 43.61-104.003v-503.057c-0.221-39.066-15.899-76.458-43.61-104.002-27.703-27.546-65.185-43.007-104.248-43.006h-548.944l-114.717-147.012c-4.789-6.883-11.13-12.542-18.51-16.527s-15.593-6.186-23.978-6.416v0zM147.9 872.882c-22.536 0-44.151-8.954-60.086-24.889s-24.89-37.55-24.89-60.087v-506.456c0-22.537 8.954-44.151 24.89-60.087s37.55-24.889 60.086-24.889c6.505-1.726 12.231-5.609 16.244-11.010s6.075-12.006 5.849-18.731v-135.965l119.816 150.41c2.813 3.589 6.435 6.459 10.57 8.379s8.666 2.834 13.222 2.668h562.541c22.97 0.165 45.028 9.020 61.735 24.784 16.714 15.763 26.835 37.268 28.339 60.192v507.305c-1.3 22.994-11.37 44.616-28.118 60.42-16.758 15.805-38.928 24.591-61.956 24.554l-728.244 3.399zM822.617 616.202h-621.171c-4.003-0.354-8.037 0.13-11.841 1.422s-7.298 3.364-10.258 6.084c-2.959 2.719-5.318 6.025-6.927 9.707s-2.432 7.66-2.416 11.678c-0.247 4.193 0.397 8.393 1.889 12.319s3.8 7.493 6.77 10.463c2.971 2.969 6.537 5.278 10.463 6.77s8.126 2.136 12.319 1.889h621.171c7.742-0.221 15.092-3.452 20.488-9.006s8.412-12.993 8.404-20.735c0.229-3.934-0.34-7.875-1.691-11.579s-3.441-7.093-6.144-9.958c-2.71-2.865-5.974-5.148-9.594-6.704s-7.52-2.357-11.463-2.351v0zM623.775 388.467h-424.879c-6.92 1.183-13.197 4.774-17.724 10.14s-7.008 12.158-7.008 19.177c0 7.019 2.483 13.813 7.008 19.178s10.804 8.956 17.724 10.139h424.879c6.919-1.182 13.197-4.773 17.724-10.139s7.008-12.158 7.008-19.178c0-7.019-2.483-13.812-7.008-19.177s-10.804-8.956-17.724-10.14v0z" />
<glyph unicode="&#xe926;" glyph-name="building" d="M397.99-1.503v230.074c-0.002 8.084 3.16 15.837 8.808 21.613s13.334 9.114 21.411 9.292h173.070c8.196 0 16.058-3.256 21.854-9.052s9.052-13.653 9.052-21.854v-230.074h194.364c2.369 0.398 4.588 1.436 6.408 3.015 1.82 1.573 3.166 3.62 3.894 5.913v883.896c0 0-6.868 8.928-10.302 8.928h-626.353c-1.838-0.84-3.469-2.076-4.775-3.62s-2.255-3.356-2.779-5.309v-879.088c-0.398-2.795 0.122-5.652 1.485-8.124 1.363-2.479 3.492-4.45 6.069-5.611h197.795zM826.548-64.001h-626.353c-17.843 1.133-34.66 8.736-47.302 21.379-12.642 12.637-20.242 29.457-21.375 47.299v886.643c1.413 17.743 9.103 34.403 21.69 46.989s29.245 20.276 46.989 21.69h623.606c17.788-1.276 34.525-8.921 47.141-21.535s20.26-29.352 21.537-47.144v-879.088c-1.133-17.843-8.736-34.662-21.379-47.299-12.643-12.643-29.457-20.246-47.299-21.379l2.747-7.555zM459.114-1.503h111.259v198.481h-111.259v-198.481zM349.915 694.9h68.679v68.679h-68.679v-68.679zM450.186 632.402h-131.176c-4.058 0-8.077 0.799-11.827 2.352s-7.157 3.83-10.026 6.699c-2.869 2.871-5.147 6.277-6.699 10.026s-2.353 7.768-2.353 11.827v133.237c-0.002 8.261 3.232 16.194 9.010 22.1s13.637 9.312 21.896 9.493h131.176c4.058-0.089 8.060-0.978 11.776-2.613s7.072-3.989 9.878-6.923c2.806-2.934 5.007-6.391 6.476-10.177s2.179-7.821 2.088-11.88v-133.237c0.002-8.079-3.16-15.838-8.808-21.614s-13.333-9.112-21.411-9.291v0zM608.147 694.9h72.799v68.679h-68.679l-4.121-68.679zM708.418 632.402h-130.489c-8.196 0-16.058 3.256-21.854 9.052s-9.052 13.656-9.052 21.854v133.237c-0.002 8.261 3.232 16.194 9.010 22.1s13.637 9.312 21.896 9.493h130.489c8.26-0.18 16.119-3.587 21.896-9.493s9.011-13.839 9.010-22.1v-133.237c0-8.196-3.256-16.058-9.052-21.854s-13.656-9.052-21.854-9.052v0zM349.915 433.921h68.679v68.679h-68.679v-68.679zM450.186 370.736h-131.176c-8.26 0.179-16.119 3.587-21.896 9.492s-9.011 13.839-9.010 22.101v133.237c0 4.058 0.799 8.077 2.353 11.827s3.83 7.157 6.699 10.026c2.871 2.871 6.278 5.147 10.026 6.699s7.769 2.353 11.827 2.353h131.176c8.077-0.18 15.763-3.515 21.411-9.292s8.81-13.535 8.808-21.613v-133.237c0.091-4.058-0.618-8.095-2.088-11.88s-3.67-7.242-6.476-10.176c-2.806-2.934-6.163-5.286-9.878-6.923s-7.718-2.524-11.776-2.613v0zM608.147 433.921h72.799v68.679h-68.679l-4.121-68.679zM708.418 370.736h-130.489c-8.26 0.179-16.119 3.587-21.896 9.492s-9.011 13.839-9.010 22.101v133.237c0 8.196 3.256 16.057 9.052 21.853s13.656 9.053 21.854 9.053h130.489c8.196 0 16.058-3.256 21.854-9.053s9.052-13.656 9.052-21.853v-133.237c0.002-8.262-3.232-16.194-9.010-22.101s-13.637-9.312-21.896-9.492z" />
<glyph unicode="&#xe927;" glyph-name="support" d="M844.256 900.479c10.116 0 12.45-5.447 5.447-13.228l-36.571-36.571c-4-4.222-7.050-9.257-8.924-14.763-1.883-5.505-2.552-11.351-1.969-17.139l7.781-52.911c0.895-5.248 3.393-10.088 7.158-13.852 3.758-3.764 8.606-6.265 13.85-7.157l52.911-7.781h3.89c10.356 0.053 20.34 3.933 28.012 10.894l36.571 36.571c0.957 1.149 2.148 2.086 3.486 2.756s2.801 1.055 4.295 1.134c0 0 5.447 0 5.447-9.337 0.521-43.369-12.535-85.814-37.35-121.385-35.622-25.392-78.426-38.751-122.163-38.127-11.858-0.53-23.149-5.212-31.903-13.228l-421.736-425.622c-8.016-8.754-12.698-20.052-13.228-31.903 0.584-43.621-12.474-86.331-37.35-122.163-35.643-25.273-78.485-38.369-122.163-37.35v0c-10.116 0-12.45 6.224-5.447 13.228l36.571 36.571c3.961 4.249 6.978 9.283 8.855 14.784 1.877 5.494 2.571 11.33 2.038 17.118l-7.781 52.911c-0.893 5.245-3.394 10.084-7.157 13.85-3.764 3.758-8.604 6.264-13.852 7.158l-52.911 7.781h-3.89c-10.202-0.171-20.058-3.728-28.012-10.116l-36.571-37.357c-2.145-2.047-4.856-3.4-7.781-3.89 0 0-5.447 0.007-5.447 9.345-0.584 43.614 12.474 86.324 37.35 122.16 35.16 26.652 78.044 41.127 122.163 41.24v0c11.663 0.365 22.768 5.084 31.124 13.228l422.513 422.513c8.144 8.357 12.863 19.462 13.228 31.124-0.584 43.619 12.474 86.329 37.35 122.163 35.692 25.167 78.496 38.253 122.164 37.35v0zM844.256 958.837c-19.569-0.234-39.085-2.056-58.358-5.447-38.898-5.484-75.233-22.568-104.267-49.021-26.737-29.458-43.839-66.379-49.021-105.823-3.393-17.176-5.216-34.626-5.447-52.134l-414.732-413.954c-19.053-0.784-38.031-2.864-56.802-6.224-37.793-6.074-72.969-23.121-101.155-49.021-26.613-29.54-43.697-66.423-49.021-105.82-3.354-18.761-5.177-37.754-5.447-56.81-0.162-13.142 3.341-26.074 10.116-37.341 5.6-9.236 13.478-16.878 22.88-22.191s20.011-8.123 30.81-8.163c18.436 0.428 35.997 7.961 49.021 21.017l29.568 29.568h17.897v-17.897l-29.568-29.576c-9.647-9.041-16.358-20.775-19.271-33.669-2.913-12.901-1.891-26.377 2.931-38.688 5.273-12.263 14.091-22.667 25.323-29.88 11.231-7.205 24.362-10.894 37.704-10.582v0c19.587 0.529 39.1 2.615 58.358 6.224 38.894 5.478 75.231 22.565 104.266 49.021 26.476 28.713 43.575 64.809 49.021 103.489 3.351 16.916 5.173 34.105 5.447 51.348l417.067 414.736c18.045 1.43 35.98 4.029 53.69 7.781 38.719 5.3 74.862 22.419 103.489 49.021 27.288 29.484 44.703 66.75 49.799 106.601 3.003 19.063 4.824 38.292 5.447 57.58-1.502 11.967-5.766 23.421-12.45 33.458-5.54 9.286-13.407 16.968-22.822 22.29s-20.052 8.098-30.868 8.056c-9.158-0.045-18.223-1.927-26.642-5.535s-16.029-8.87-22.379-15.473l-29.568-29.568h-17.897v17.897l29.568 29.568c9.734 8.985 16.512 20.716 19.43 33.639s1.844 26.429-3.089 38.725c-4.91 12.697-13.57 23.596-24.83 31.242s-24.588 11.677-38.198 11.553v0z" />
<glyph unicode="&#xe928;" glyph-name="headset" d="M510.783 388.068c-30.554-3.205-61.438 0.453-90.397 10.711s-55.26 26.854-76.984 48.578c-21.724 21.724-38.32 48.025-48.578 76.984s-13.918 59.842-10.711 90.396c-3.206 30.554 0.453 61.438 10.711 90.397s26.854 55.26 48.578 76.984c21.723 21.723 48.025 38.32 76.984 48.578s59.842 13.918 90.397 10.711c30.524 3.065 61.348-0.693 90.24-11s55.136-26.907 76.827-48.6c21.692-21.692 38.293-47.934 48.6-76.828s14.064-59.716 11.001-90.24c3.063-30.524-0.693-61.348-11.001-90.24s-26.907-55.136-48.6-76.828c-21.692-21.692-47.934-38.292-76.827-48.599s-59.716-14.065-90.24-11.001v0zM510.783 787.004c-45.876 3.379-91.302-10.953-126.934-40.045-14.995-17.902-26.262-38.62-33.138-60.936s-9.225-45.782-6.907-69.020c-1.996-23.449 0.793-47.059 8.197-69.399s19.266-42.942 34.871-60.558c35.366-29.645 80.92-44.287 126.934-40.8 46.034-3.651 91.649 11.012 126.934 40.8 15.739 17.556 27.74 38.131 35.274 60.473s10.443 45.982 8.549 69.483c1.983 23.508-0.883 47.173-8.422 69.528s-19.588 42.923-35.401 60.429c-17.902 14.995-38.621 26.262-60.936 33.138s-45.783 9.225-69.020 6.907v0zM741.24 505.979h-137.513c-7.755 0.191-15.14 3.357-20.625 8.842s-8.651 12.869-8.842 20.625c0.197 7.683 3.388 14.986 8.893 20.35s12.888 8.364 20.574 8.362h137.513c5.153-0.585 10.374-0.080 15.315 1.482 4.949 1.562 9.513 4.145 13.396 7.584 6.55 8.366 9.785 18.861 9.067 29.467v0 29.467c2.97 36.948-1.669 74.114-13.63 109.201-11.953 35.087-30.972 67.351-55.883 94.801-55.262 46.685-126.545 69.994-198.713 64.979-66.147 3.824-131.645-14.813-185.868-52.889-23.585-20.465-42.826-45.453-56.582-73.485s-21.751-58.54-23.507-89.717c-0.071-4.047-0.997-8.034-2.718-11.697s-4.195-6.922-7.262-9.562c-3.068-2.64-6.66-4.601-10.539-5.755s-7.958-1.475-11.97-0.942c-7.696 0.946-14.707 4.888-19.515 10.969s-7.027 13.814-6.174 21.52c2.252 39.149 12.457 77.429 29.994 112.504s42.038 66.207 72.007 91.499c64.294 46.78 142.737 69.994 222.135 65.734 87.592 5.596 173.877-23.437 240.271-80.845 30.51-32.964 53.954-71.819 68.9-114.178 14.937-42.358 21.065-87.325 17.99-132.136v0-27.956c0.597-13.010-1.436-26.006-5.977-38.209-4.548-12.205-11.508-23.365-20.468-32.813-9.217-9.113-20.219-16.231-32.308-20.911s-25.009-6.821-37.959-6.289v0zM570.532 569.509c-4.581 0.474-9.211-0.081-13.552-1.622s-8.283-4.031-11.54-7.288c-3.256-3.257-5.747-7.2-7.288-11.54s-2.095-8.971-1.622-13.552c-0.373-9.048 2.585-17.919 8.311-24.933 7.246-5.841 16.395-8.8 25.69-8.311 9.048-0.373 17.919 2.585 24.933 8.311 3.105 3.336 5.508 7.262 7.066 11.546s2.237 8.836 2.001 13.388c0.474 4.581-0.081 9.211-1.622 13.552s-4.030 8.283-7.288 11.54c-3.257 3.256-7.199 5.747-11.54 7.288s-8.971 2.095-13.552 1.622v0zM570.526 487.157c-6.651-0.311-13.297 0.735-19.531 3.073s-11.928 5.919-16.736 10.526c-4.221 4.701-7.463 10.195-9.539 16.162s-2.942 12.287-2.55 18.594c-0.119 6.28 1.068 12.515 3.487 18.312s6.015 11.027 10.561 15.361c4.546 4.333 9.944 7.674 15.849 9.811s12.191 3.025 18.459 2.605c6.595 0.576 13.235-0.298 19.455-2.562s11.869-5.863 16.551-10.544c4.681-4.681 8.279-10.33 10.543-16.55s3.138-12.862 2.562-19.455c0.249-6.354-0.757-12.693-2.961-18.657s-5.563-11.434-9.884-16.099c-5.048-4.070-10.852-7.101-17.075-8.916s-12.747-2.381-19.191-1.662v0zM570.526 555.157c-14.356 0-19.644-5.289-19.644-19.644-0.269-2.576-0.005-5.179 0.775-7.649s2.060-4.753 3.759-6.706c4.264-3.403 9.678-5.028 15.112-4.534 5.417-0.347 10.779 1.261 15.112 4.534 1.811 4.613 1.811 9.741 0 14.356 3.778 14.356-2.266 19.644-15.112 19.644zM948.309-63.651h-877.21c-3.833-0.098-7.648 0.567-11.219 1.965s-6.826 3.499-9.573 6.173c-2.747 2.674-4.929 5.879-6.419 9.415-1.49 3.529-2.257 7.329-2.255 11.159v87.646c-1.64 73.546 25.464 144.834 75.556 198.715 30.042 28.686 65.675 50.872 104.674 65.172s80.528 20.407 121.994 17.939h336.226c41.465 2.468 82.993-3.639 121.996-17.939 38.995-14.3 74.635-36.485 104.675-65.172 50.646-54.441 77.793-126.658 75.556-200.982v-85.378c-0.061-4.216-1.020-8.371-2.826-12.187s-4.405-7.201-7.631-9.921c-3.219-2.72-6.989-4.722-11.054-5.856-4.065-1.14-8.326-1.398-12.49-0.748v0zM99.811-5.473h821.299v58.178c2.387 58.828-18.209 116.274-57.423 160.179-24.329 23.203-53.206 41.095-84.819 52.54-31.606 11.446-65.244 16.197-98.784 13.952h-336.226c-33.482 2.299-67.078-2.353-98.675-13.667s-60.512-29.040-84.927-52.069c-40.499-43.626-62.211-101.434-60.445-160.935v-58.178z" />
<glyph unicode="&#xe929;" glyph-name="bullhorn" d="M716.153 109.082h-14.242l-665.504 204.873c-9.954 2.889-18.782 8.761-25.291 16.824s-10.387 17.928-11.11 28.264v178.77c-0.158 10.716 3.144 21.198 9.415 29.89s15.18 15.132 25.403 18.362v0l667.087 202.5c7.237 1.894 14.827 2.020 22.131 0.368 7.298-1.652 14.092-5.034 19.807-9.86 6.292-4.829 11.354-11.067 14.792-18.211s5.144-14.995 4.994-22.921v-582.192c0.319-6.428-0.673-12.856-2.908-18.89-2.242-6.034-5.687-11.551-10.131-16.213s-9.785-8.371-15.71-10.906c-5.919-2.527-12.292-3.832-18.733-3.825v3.167zM56.981 362.998l655.217-196.174v563.996l-655.217-196.171v-171.651zM27.742 284.687c-3.774-0.006-7.51 0.759-10.977 2.248s-6.595 3.672-9.188 6.412c-2.593 2.74-4.599 5.982-5.895 9.527s-1.852 7.315-1.636 11.081v271.319c0 7.342 2.918 14.385 8.112 19.576s12.239 8.109 19.584 8.109c7.346 0 14.39-2.917 19.584-8.109s8.112-12.234 8.112-19.576v-271.319c0.216-3.766-0.341-7.537-1.636-11.081s-3.301-6.786-5.895-9.527c-2.593-2.741-5.72-4.923-9.188-6.412s-7.204-2.254-10.978-2.248v0zM990.787 432.608h-113.161c-4.084-0.688-8.269-0.477-12.265 0.618s-7.698 3.046-10.865 5.72c-3.16 2.673-5.7 6.003-7.448 9.759-1.74 3.755-2.643 7.846-2.643 11.985s0.904 8.23 2.643 11.985c1.746 3.755 4.288 7.086 7.448 9.759 3.167 2.673 6.869 4.625 10.865 5.72s8.181 1.305 12.265 0.618h113.161c4.084 0.688 8.263 0.477 12.258-0.618s7.706-3.046 10.865-5.72c3.16-2.673 5.7-6.004 7.448-9.759s2.643-7.846 2.643-11.985c0-4.14-0.897-8.23-2.643-11.985s-4.288-7.086-7.448-9.759c-3.16-2.673-6.869-4.625-10.865-5.72s-8.175-1.305-12.258-0.618v0zM369.594 133.605c-4.451-0.768-9.001-0.768-13.452 0l-118.698 38.758c-5.327 1.624-10.277 4.286-14.563 7.839s-7.82 7.924-10.398 12.857c-2.578 4.934-4.148 10.331-4.617 15.877s0.17 11.13 1.882 16.425l11.87 38.76c3.455 10.632 10.942 19.486 20.855 24.663s21.459 6.261 32.164 3.023l121.072-37.178c4.978-1.546 9.584-4.099 13.532-7.502s7.154-7.58 9.416-12.274c2.155-5.135 3.264-10.648 3.264-16.216s-1.109-11.081-3.264-16.216l-11.87-38.757c-3.683-10.627-11.34-19.419-21.366-24.523-5.833-3.146-12.363-4.783-18.992-4.75l3.165-0.788zM269.887 221.406l90.211-28.476v11.865l-87.045 30.059v-11.865l-3.166-1.582zM953.591 142.302c-7.481 0.19-14.588 3.316-19.787 8.704l-79.133 79.101c-5.348 5.349-8.358 12.605-8.358 20.171s3.010 14.821 8.358 20.17c5.354 5.349 12.611 8.355 20.181 8.355s14.827-3.005 20.181-8.355l79.133-79.101c4.946-5.398 7.692-12.454 7.692-19.774 0-7.325-2.745-14.378-7.692-19.78-5.483-5.429-12.856-8.548-20.575-8.698v-0.795zM874.459 643.809c-7.719 0.152-15.092 3.268-20.575 8.702-2.629 2.578-4.723 5.654-6.15 9.050s-2.161 7.042-2.161 10.726c0 3.683 0.734 7.329 2.161 10.725s3.52 6.472 6.15 9.050l79.133 79.102c2.582 2.631 5.654 4.721 9.050 6.147s7.046 2.162 10.729 2.162c3.69 0 7.338-0.735 10.736-2.162 3.391-1.426 6.469-3.516 9.050-6.147 2.657-2.646 4.763-5.789 6.204-9.251 1.434-3.461 2.175-7.172 2.175-10.92s-0.741-7.459-2.175-10.921c-1.44-3.461-3.547-6.604-6.204-9.25l-79.133-79.101c-5.246-4.622-12-7.155-18.992-7.119v-0.791z" />
<glyph unicode="&#xe92a;" glyph-name="cloud" horiz-adv-x="1434" d="M1046.804-43.527h-738.308c-75.772 0-148.44 30.099-202.018 83.678s-83.679 126.246-83.679 202.018c0.342 64.739 23.144 127.353 64.512 177.152 36.764 47.398 86.601 82.995 143.36 102.4 2.96 107.878 43.943 211.242 115.712 291.84 38.633 40.251 85.084 72.186 136.501 93.844s106.716 32.584 162.507 32.108c82.384 0.030 163.102-23.215 232.851-67.058s125.695-106.5 161.393-180.75v0c97.495 0.95 191.375-36.869 260.987-105.138s109.261-161.396 110.213-258.894c0.942-97.498-36.874-191.38-105.144-260.994s-161.393-109.256-258.888-110.206v0zM645.392 860.665c-46.509 1.247-92.803-6.758-136.192-23.552-38.785-17.827-73.603-43.245-102.4-74.752-64.573-71.837-99.359-165.574-97.28-262.144 0-19.456-9.216-45.056-52.224-57.344-43.123-12.963-81.318-38.664-109.568-73.728-29.278-35.896-45.522-80.657-46.080-126.976 0-54.317 21.577-106.408 59.984-144.816 38.408-38.407 90.499-59.984 144.816-59.984h740.356c76.585 0 150.026 30.423 204.186 84.578s84.582 127.604 84.582 204.19-30.423 150.035-84.582 204.19c-54.159 54.154-127.601 84.578-204.186 84.578h-20.48c-11.034-0.526-21.928 2.6-31 8.894s-15.814 15.406-19.181 25.922v0c-28.767 63.425-75.342 117.126-134.060 154.575s-127.052 57.032-196.692 56.369v0z" />
<glyph unicode="&#xe92b;" glyph-name="play-circle" d="M512.010-42.752c-131.387-8.719-260.925 34.633-360.594 120.686-45.842 49.518-81.046 107.908-103.438 171.563s-31.499 131.226-26.756 198.539c-4.179 66.597 5.205 133.349 27.585 196.212s57.287 120.528 102.609 169.503c98.989 87.634 228.602 132.591 360.594 125.074 131.346 8.402 260.767-34.913 360.592-120.686 45.809-49.543 80.991-107.936 103.38-171.585s31.517-131.209 26.814-198.518c4.747-67.313-4.359-134.883-26.756-198.539-22.389-63.655-57.593-122.045-103.439-171.563-99.664-86.053-229.205-129.404-360.592-120.686v0zM512.010 884.699c-292.571 0-438.857-146.286-438.857-438.857s146.286-438.856 438.857-438.856c292.569 0 438.855 146.286 438.855 438.856s-146.286 438.857-438.855 438.857v0zM372.28 233.002c-4.073-1.086-8.361-1.086-12.434 0-3.597 2.245-6.561 5.372-8.609 9.084s-3.114 7.887-3.094 12.127v386.194c-0.020 4.24 1.046 8.414 3.094 12.127s5.012 6.84 8.609 9.084c3.67 2.118 7.831 3.234 12.069 3.234s8.399-1.115 12.069-3.234l332.069-191.634c4.003-2.007 7.369-5.089 9.721-8.899s3.598-8.201 3.598-12.679c0-4.479-1.246-8.868-3.598-12.679s-5.718-6.892-9.721-8.899l-329.143-190.903c-4.427-2.545-9.564-3.572-14.629-2.926v0zM396.417 598.717v-299.886l259.657 146.286-259.657 146.286v7.314z" />
<glyph unicode="&#xe92c;" glyph-name="paper-dollar" d="M270.459 320.753c-71.883-4.551-142.642 19.551-196.803 67.034-25.4 26.999-44.912 58.98-57.299 93.917s-17.378 72.068-14.657 109.036c-2.437 36.758 2.692 73.623 15.068 108.32s31.738 66.486 56.887 93.403c54.257 47.259 125.006 71.137 196.803 66.421 36.504 3.035 73.244-1.338 108.014-12.858s66.854-29.948 94.324-54.178c24.045-27.341 42.366-59.224 53.881-93.767s15.987-71.042 13.156-107.342c2.721-36.968-2.27-74.099-14.657-109.036s-31.899-66.919-57.299-93.917c-54.35-47.576-125.336-71.684-197.418-67.034v0zM270.459 801.074c-141.452 0-210.949-68.882-210.949-210.334s69.496-212.177 210.949-212.177c141.452 0 211.564 69.495 211.564 212.177 2.679 28.718-0.343 57.683-8.892 85.23s-22.456 53.133-40.924 75.288c-22.213 18.573-47.898 32.542-75.562 41.095s-56.751 11.517-85.571 8.721h-0.615zM191.139 486.819c-1.606 1.069-2.906 2.539-3.769 4.266s-1.259 3.648-1.151 5.574c-0.002 1.426 0.288 2.838 0.851 4.148s1.389 2.492 2.426 3.471c1.037 0.979 2.264 1.736 3.603 2.224s2.766 0.695 4.19 0.612c2.378 0.897 5.002 0.897 7.38 0 19.972-13.694 43.448-21.377 67.651-22.14 39.976 0 65.191 20.91 65.191 51.661s-14.145 43.050-61.501 48.586h-11.685c-49.201 5.535-71.956 28.906-71.956 67.036 0.012 9.926 2.132 19.738 6.219 28.785s10.050 17.122 17.491 23.692c7.442 6.57 16.194 11.484 25.678 14.418s19.482 3.822 29.333 2.602c21.603-0.038 42.815-5.765 61.501-16.605 2.032-0.951 3.783-2.416 5.077-4.249s2.089-3.972 2.304-6.206c0-2.61-1.037-5.112-2.882-6.958s-4.348-2.882-6.958-2.882c-2.366-0.958-5.013-0.958-7.38 0-16.899 9.535-35.948 14.615-55.351 14.76-36.9 0-57.196-20.91-57.196-49.201s15.99-42.435 61.501-47.97h11.685c49.816-6.15 73.802-29.521 73.802-67.651s-29.521-72.571-88.561-72.571c-27.699 0.33-54.673 8.894-77.491 24.601v0zM268.616 451.13c-29.517 0.818-58.155 10.223-82.411 27.060-4.082 2.449-7.238 6.18-8.973 10.614s-1.951 9.316-0.616 13.884c1.336 4.569 4.148 8.565 7.998 11.366s8.518 4.246 13.277 4.11c4.813-0.205 9.483-1.691 13.531-4.305 18.018-12.745 39.435-19.813 61.5-20.295 33.826 0 54.737 15.375 54.737 40.591 0 15.99-6.15 32.595-51.046 38.131h-11.684c-69.496 9.84-83.642 48.586-83.642 79.952-0.075 11.403 2.271 22.692 6.884 33.121s11.387 19.76 19.874 27.375c8.488 7.616 18.495 13.343 29.361 16.803s22.343 4.573 33.671 3.268c24.856 0.083 49.28-6.5 70.726-19.066 3.601-1.85 6.608-4.677 8.675-8.159s3.11-7.475 3.010-11.522c0-5.546-2.203-10.865-6.124-14.786s-9.24-6.124-14.786-6.124c-4.251 0.658-8.39 1.899-12.3 3.69v0c-15.161 8.729-32.322 13.389-49.816 13.531-28.906 0-46.741-14.145-46.741-38.131 0-9.84 0.001-30.75 49.817-37.515h11.685c68.882-9.225 85.486-47.97 85.486-79.337 0.426-11.571-1.725-23.092-6.299-33.727s-11.455-20.123-20.146-27.773c-21.064-16.272-47.212-24.552-73.802-23.371l-1.844 0.615zM197.274 495.41c6.206-4.286 12.794-7.991 19.68-11.070-6.49 3.092-12.668 6.799-18.451 11.070v0h-1.23zM295.061 590.737c9.546-1.457 18.665-4.959 26.732-10.266s14.893-12.295 20.010-20.484c-4.805 8.456-11.546 15.653-19.671 20.998s-17.402 8.689-27.069 9.752zM205.883 631.943c3.802-9.176 9.952-17.19 17.833-23.235s17.215-9.91 27.062-11.205c-9.694 1.726-18.831 5.757-26.644 11.75s-14.072 13.774-18.252 22.691zM270.458 412.416c-2.929-0.168-5.86 0.265-8.616 1.271s-5.276 2.565-7.406 4.582c-2.131 2.016-3.828 4.445-4.985 7.14s-1.752 5.599-1.748 8.532v321.651c0.869 5.162 3.539 9.849 7.536 13.228s9.063 5.235 14.296 5.235c5.235 0 10.299-1.855 14.296-5.235s6.667-8.067 7.536-13.228v-321.651c-0.146-5.559-2.377-10.858-6.252-14.845s-9.107-6.373-14.658-6.68zM641.331-61.771h-338.258c-8.214-0.369-16.418 0.904-24.13 3.758s-14.773 7.22-20.766 12.847c-5.628 5.997-9.998 13.057-12.85 20.768s-4.13 15.917-3.756 24.127v349.941c1.021 7.024 4.535 13.438 9.899 18.081 5.364 4.637 12.22 7.189 19.313 7.189s13.949-2.552 19.313-7.189c5.364-4.643 8.879-11.058 9.899-18.081v-353.016h664.213v651.914l-252.769 253.384h-411.444v-71.956c-1.021-7.019-4.535-13.437-9.899-18.077s-12.22-7.195-19.313-7.195c-7.093 0-13.949 2.553-19.313 7.195s-8.879 11.057-9.899 18.077v68.267c-0.757 8.265 0.316 16.596 3.138 24.401s7.329 14.894 13.198 20.763c5.869 5.869 12.958 10.375 20.763 13.199s16.136 3.895 24.402 3.138h421.284c7.632-0.076 14.933-3.172 20.295-8.61l269.989-270.604c5.209-5.462 8.081-12.746 7.996-20.295v-662.369c0.984-8.309 0.074-16.74-2.663-24.656-2.743-7.909-7.245-15.098-13.161-21.015-5.922-5.922-13.112-10.425-21.021-13.167-7.916-2.737-16.34-3.648-24.656-2.663l-319.805 1.845zM865.194 122.732h-424.36c-3.796 0-7.555 0.75-11.062 2.202s-6.694 3.586-9.377 6.267c-2.684 2.681-4.813 5.873-6.266 9.379s-2.2 7.264-2.2 11.058c0 3.801 0.748 7.559 2.2 11.064s3.582 6.692 6.266 9.379c2.684 2.681 5.871 4.815 9.377 6.267s7.266 2.196 11.062 2.196h421.899c7.663 0 15.018-3.044 20.437-8.463 5.418-5.425 8.469-12.774 8.469-20.443 0-7.663-3.051-15.018-8.469-20.437s-12.774-8.469-20.437-8.469h2.461zM865.194 292.475h-369.009c-7.666 0-15.018 3.051-20.439 8.469s-8.466 12.774-8.466 20.437c0 7.669 3.045 15.018 8.466 20.443 5.42 5.418 12.773 8.463 20.439 8.463h369.009c7.663 0 15.018-3.044 20.437-8.463 5.418-5.425 8.469-12.774 8.469-20.443 0-7.663-3.051-15.018-8.469-20.437s-12.774-8.469-20.437-8.469v0zM865.194 490.511h-254.614c-3.801 0-7.559 0.747-11.064 2.2s-6.692 3.582-9.379 6.266c-2.681 2.684-4.81 5.87-6.267 9.377-1.452 3.507-2.196 7.266-2.196 11.063s0.744 7.555 2.196 11.062c1.457 3.507 3.586 6.693 6.267 9.377 2.688 2.684 5.873 4.813 9.379 6.266s7.264 2.2 11.064 2.2h252.154c7.663 0 15.018-3.045 20.437-8.466s8.469-12.773 8.469-20.439c0-7.667-3.051-15.018-8.469-20.439s-12.774-8.466-20.437-8.466h2.461zM993.049 631.389h-164.823c-19.865-0.856-39.644 3.117-57.638 11.578s-33.672 21.161-45.683 37.007c-21.482 31.645-32.060 69.429-30.136 107.627v143.297c0.055 5.676 1.784 11.209 4.963 15.91s7.669 8.362 12.916 10.526c5.252 2.164 11.015 2.736 16.587 1.644s10.695-3.799 14.736-7.785l269.374-270.604c2.792-2.59 5.025-5.731 6.55-9.223s2.312-7.262 2.312-11.072c0-3.811-0.787-7.58-2.312-11.072s-3.758-6.631-6.55-9.223c-2.589-2.779-5.732-4.983-9.231-6.466s-7.269-2.214-11.064-2.145v0zM752.58 860.788v-72.571c-1.752-26.204 4.926-52.282 19.066-74.417 6.667-8.453 15.32-15.125 25.197-19.417 9.871-4.293 20.652-6.073 31.384-5.184h95.942l-171.588 171.588z" />
<glyph unicode="&#xe92d;" glyph-name="search" d="M379.588 202.225c-209.644 0-379.588 168.968-379.588 377.41s169.944 377.41 379.588 377.41c209.642 0 379.587-168.97 379.587-377.41 0-83.808-27.475-161.23-73.952-223.86l322.118-320.27c22.212-22.088 22.212-57.898 0-79.987-22.215-22.085-58.233-22.085-80.448 0l-322.109 320.266c-62.998-46.235-140.889-73.56-225.196-73.56zM379.588 303.517c153.197 0 277.794 123.932 277.794 276.201 0 152.322-124.597 276.203-277.794 276.203s-277.793-123.881-277.793-276.203c0-152.268 124.595-276.201 277.793-276.201z" />
<glyph unicode="&#xe92e;" glyph-name="bars-triangle" d="M605.090 184.242c25.705 0 46.545-20.84 46.545-46.545s-20.84-46.545-46.545-46.545h-186.179c-25.708 0-46.548 20.84-46.548 46.545s20.84 46.545 46.548 46.545h186.179zM791.273 494.545c25.705 0 46.545-20.84 46.545-46.545s-20.84-46.545-46.545-46.545h-558.545c-25.706 0-46.546 20.84-46.546 46.545s20.839 46.545 46.546 46.545h558.545zM977.455 804.848c25.705 0 46.545-20.839 46.545-46.546s-20.84-46.545-46.545-46.545h-930.909c-25.706 0-46.546 20.839-46.546 46.545s20.839 46.546 46.546 46.546h930.909z" />
<glyph unicode="&#xe92f;" glyph-name="sorter" d="M1011.621 696.032l-251.589 251.587c-16.508 16.508-43.042 16.508-59.55 0l-251.38-251.587c-16.508-16.508-16.508-43.046 0-59.553s43.046-16.508 59.554 0l179.076 179.078v-737.211c0-23.612 19.017-42.624 42.628-42.624s42.628 19.012 42.628 42.624v737.211l179.076-179.078c16.508-16.508 43.046-16.508 59.554 0 16.508 16.299 16.508 43.046 0 59.553zM574.9 259.521c-16.508 16.508-43.046 16.508-59.554 0l-179.078-179.076v737.208c0 23.613-19.015 42.628-42.628 42.628s-42.627-19.015-42.627-42.628v-737.208l-179.078 179.076c-16.508 16.508-43.046 16.508-59.553 0s-16.508-43.046 0-59.554l251.587-251.585c16.508-16.508 43.046-16.508 59.553 0l251.589 251.585c16.299 16.508 16.299 43.255-0.209 59.554z" />
<glyph unicode="&#xe930;" glyph-name="credit-card" d="M844.788 90.018l-665.598 0.358c-24.474-1.723-49.018 1.974-72.099 10.863s-44.206 22.779-62.054 40.801c-31.546 38.501-47.612 88.796-44.701 139.931v194.704h1023.329v-195.173c2.903-51.135-13.162-101.424-44.701-139.931-17.863-18.001-38.997-31.868-62.081-40.738s-47.625-12.55-72.095-10.815v0zM158.832 360.347c-9.776-0.006-19.151-4.169-26.066-11.573s-10.807-17.442-10.821-27.917v-57.834c0.014-10.474 3.905-20.516 10.821-27.92s16.29-11.568 26.066-11.573h53.98c9.769 0.006 19.137 4.166 26.048 11.565s10.799 17.434 10.813 27.899v57.834c-0.007 10.471-3.893 20.512-10.804 27.92-6.911 7.404-16.283 11.568-26.057 11.573l-53.98 0.027zM1023.101 634.038h-1022.224c0.022 23.801 4.487 47.357 13.13 69.283s21.291 41.779 37.199 58.391c35.968 31.461 81.659 47.287 128.009 44.339l665.596-0.496c46.278 2.925 91.9-12.846 127.856-44.201 15.901-16.545 28.556-36.329 37.22-58.188 8.667-21.859 13.165-45.352 13.237-69.101l-0.024-0.028z" />
<glyph unicode="&#xe931;" glyph-name="truck" d="M783.354 122.924c-64.891 0-108.273 28.789-122.143 81.075h-238.44c-13.87-52.262-57.252-81.075-122.17-81.075-64.916 0-108.323 28.813-122.219 81.124h-7.23c-22.558 0.547-43.986 9.511-59.662 24.958-16.251 14.91-25.69 35.301-26.28 56.775v53.408h-56.072c-7.728 0-15.14 2.92-20.604 8.121-5.465 5.199-8.535 12.253-8.535 19.608 0 7.352 3.070 14.406 8.535 19.605 5.465 5.201 12.876 8.121 20.604 8.121h56.072v79.685h-56.072c-7.728 0-15.14 2.92-20.604 8.121-5.465 5.199-8.535 12.253-8.535 19.605 0 7.355 3.070 14.408 8.535 19.608s12.876 8.121 20.604 8.121h56.072v79.83h-56.072c-7.728 0-15.14 2.921-20.604 8.121s-8.535 12.253-8.535 19.607c0 7.354 3.070 14.407 8.535 19.607s12.876 8.121 20.604 8.121h56.072v26.228c0.59 21.474 10.029 41.865 26.28 56.774 15.667 15.465 37.096 24.447 59.662 25.008h568.052c15.601-0.22 30.947-3.803 44.883-10.48s26.096-16.274 35.572-28.069c22.384-29.595 152.834-194.452 169.884-215.557 19.030-19.627 31.088-44.461 34.458-70.974v-162.174c-1.003-21.387-10.383-41.643-26.293-56.778s-37.197-24.056-59.674-25.004h-32.51c-13.87-52.31-57.276-81.124-122.168-81.124zM783.354 309.252c-48.176 0-68.711-19.518-68.711-65.436s20.51-65.436 68.711-65.436c48.201 0 68.711 19.518 68.711 65.436s-20.537 65.436-68.711 65.436zM300.525 309.252c-48.175 0-68.712-19.518-68.712-65.436s20.511-65.436 68.712-65.436c48.201 0 68.738 19.518 68.738 65.436s-20.589 65.436-68.738 65.436v0z" />
<glyph unicode="&#xe932;" glyph-name="badge-percent" d="M511.973-64c-37.265 0-57.954 37.653-77.948 74.074-7.343 15.578-16.86 30.029-28.271 42.923-16.925-5.513-32.946-13.487-47.546-23.671-22.415-16.875-48.802-27.682-76.612-31.381-9.007-0.107-17.878 2.189-25.7 6.656-31.714 18.351-30.84 60.864-29.941 101.961 1.452 17.481 0.387 35.076-3.161 52.254-10.738 3.209-21.982 4.386-33.153 3.469-6.219 0-12.85-0.128-19.044-0.282-6.193-0.158-13.724-0.311-20.431-0.311h-0.18c-22.333 0-63.942 0-81.418 30.225-18.144 31.334 3.624 67.366 24.646 102.221l0.231 0.358c10.095 14.524 17.969 30.473 23.362 47.317-12.878 11.29-27.262 20.736-42.74 28.066-36.392 20.151-74.068 40.866-74.068 78.11s37.677 57.958 74.12 78.007c15.555 7.345 29.989 16.864 42.868 28.271-5.532 16.915-13.516 32.926-23.695 47.523v0c-21.049 34.852-42.791 70.886-24.647 102.217 17.476 30.226 59.111 30.226 81.598 30.226 6.708 0 13.75-0.154 20.355-0.308s12.85-0.283 19.121-0.283c11.171-0.941 22.419 0.236 33.153 3.47 3.549 17.159 4.613 34.739 3.161 52.201-0.874 41.123-1.799 83.66 29.941 102.012 7.822 4.466 16.694 6.764 25.7 6.657 27.771-3.696 54.121-14.487 76.509-31.331 14.676-10.237 30.807-18.208 47.854-23.646 11.266 12.876 20.693 27.252 28.015 42.717 19.942 36.6 40.657 74.279 77.922 74.279s57.954-37.679 77.999-74.125c7.343-15.552 16.862-29.979 28.271-42.845 16.9 5.519 32.905 13.485 47.497 23.646 22.426 16.892 48.832 27.718 76.663 31.433 9.003 0.107 17.877-2.191 25.698-6.657 31.714-18.351 30.839-60.863 29.939-101.961-1.451-17.479-0.388-35.076 3.162-52.252 10.735-3.234 21.982-4.411 33.156-3.47 6.268 0 12.847 0.129 19.119 0.283s13.649 0.308 20.356 0.308c22.409 0 64.119 0 81.596-30.226 18.172-31.382-3.648-67.442-24.721-102.346l-0.23-0.36c-10.099-14.524-17.971-30.472-23.364-47.317 12.877-11.291 27.264-20.737 42.739-28.066 36.446-20.023 74.146-40.738 74.146-78.007s-37.649-57.958-74.069-77.956c-15.582-7.334-30.042-16.853-42.944-28.271 5.542-16.913 13.538-32.926 23.723-47.522 21.073-34.88 42.893-70.963 24.721-102.349-17.476-30.225-59.11-30.225-81.596-30.225-6.707 0-13.751 0.154-20.356 0.311-6.605 0.154-12.851 0.282-19.119 0.282-11.17 0.917-22.417-0.26-33.156-3.469-3.546-17.161-4.612-34.739-3.162-52.203 0.875-41.122 1.801-83.661-29.939-102.012-7.821-4.467-16.695-6.763-25.698-6.656-27.857 3.648-54.302 14.434-76.77 31.305-14.643 10.21-30.737 18.155-47.748 23.569-11.268-12.877-20.693-27.251-28.015-42.718-19.942-36.446-40.657-74.125-77.897-74.125zM689.305 704.211c-4.459 0.018-8.862-0.987-12.873-2.938s-7.522-4.798-10.257-8.319l-354.843-453.513c-2.363-3.038-4.105-6.511-5.125-10.223s-1.3-7.586-0.823-11.405c0.477-3.819 1.702-7.505 3.604-10.85s4.445-6.285 7.484-8.649c6.136-4.766 13.914-6.899 21.623-5.935s14.722 4.945 19.497 11.076l354.74 453.258c4.745 6.145 6.869 13.917 5.905 21.621-0.96 7.704-4.932 14.715-11.046 19.503-5.086 4.076-11.392 6.321-17.911 6.374h0.026zM633.842 403.341c-13.193 1.229-26.492-0.465-38.959-4.962-12.463-4.497-23.782-11.686-33.152-21.056s-16.563-20.689-21.060-33.152c-4.501-12.463-6.199-25.766-4.975-38.959-1.225-13.193 0.474-26.496 4.975-38.959 4.497-12.463 11.691-23.782 21.060-33.152s20.689-16.559 33.152-21.056c12.467-4.497 25.766-6.191 38.959-4.962 13.197-1.229 26.496 0.465 38.959 4.962s23.787 11.686 33.156 21.056c9.37 9.37 16.559 20.689 21.060 33.152s6.199 25.766 4.975 38.959c1.225 13.193-0.474 26.496-4.975 38.959s-11.691 23.782-21.060 33.152c-9.37 9.37-20.693 16.559-33.156 21.056s-25.762 6.191-38.959 4.962v0zM389.847 689.15c-13.193 1.227-26.495-0.468-38.959-4.965s-23.783-11.686-33.154-21.055c-9.37-9.369-16.562-20.687-21.062-33.151s-6.199-25.766-4.975-38.96c-1.224-13.194 0.475-26.496 4.975-38.96s11.692-23.782 21.062-33.152c9.37-9.37 20.69-16.555 33.154-21.052 12.464-4.501 25.766-6.195 38.959-4.966 13.193-1.229 26.495 0.465 38.958 4.966 12.463 4.497 23.787 11.682 33.156 21.052s16.559 20.688 21.060 33.152c4.501 12.464 6.199 25.766 4.975 38.96 1.225 13.195-0.474 26.497-4.975 38.96s-11.691 23.782-21.060 33.151c-9.37 9.369-20.693 16.557-33.156 21.055s-25.764 6.192-38.958 4.965zM633.842 265.732c-29.167 0-39.501 10.283-39.501 39.505s10.283 39.505 39.501 39.505c29.222 0 39.501-10.283 39.501-39.505s-10.278-39.531-39.501-39.531v0.026zM389.847 551.54c-29.195 0-39.527 10.281-39.527 39.478s10.28 39.504 39.527 39.504c29.247 0 39.5-10.281 39.5-39.504s-10.432-39.478-39.5-39.478v0z" />
<glyph unicode="&#xe933;" glyph-name="lock-fill" d="M714.236-63.662h-404.634c-47.007-2.82-93.249 12.651-128.656 43.055-16.558 17.216-29.315 37.589-37.478 59.844-8.163 22.259-11.556 45.922-9.967 69.517l0.184 294.741c0 7.714 0 10.901 0 12.134 0 0.649 0 1.301 0 1.954-1.596 23.599 1.791 47.266 9.95 69.525 8.158 22.263 20.913 42.641 37.469 59.864 21.588 19.71 48.48 32.971 77.509 38.221v142.037c1.536 63.065 28.537 122.964 75.091 166.582s108.867 67.399 173.293 66.137h9.846c64.448 1.297 126.797-22.469 173.376-66.091 46.583-43.622 73.604-103.54 75.14-166.628v-142.089c29.039-5.246 55.94-18.507 77.534-38.221 16.546-17.215 29.295-37.58 37.453-59.826 8.158-22.251 11.55-45.901 9.967-69.487 0-0.653 0-1.301 0-1.954 0-1.233 0-4.395 0-12.134l0.183-294.711c1.596-23.599-1.792-47.27-9.95-69.53-8.158-22.263-20.911-42.641-37.47-59.861-35.447-30.455-81.766-45.943-128.841-43.081zM506.996 905.973c-49.822 1.308-98.142-16.771-134.374-50.274s-57.421-79.7-58.925-128.468v-137.256h396.472v137.256c-1.506 48.773-22.699 94.973-58.935 128.477s-84.565 51.579-134.391 50.264h-9.846z" />
</font>
</defs>
</svg>
