<svg version="1.2" xmlns="http://www.w3.org/2000/svg" viewBox="0 0 8 13" width="8" height="13"><style>.a{fill:#589cf1}</style><path fill-rule="evenodd" class="a" d="m2 12.3q-1 0-1.5-0.5-0.5-0.5-0.5-1.5v-7.8q0-1 0.5-1.5 0.5-0.5 1.5-0.5h3.9q1 0 1.5 0.5 0.4 0.5 0.4 1.5v7.8q0 1-0.5 1.5-0.4 0.5-1.4 0.5zm0-11.1c-0.9 0-1.3 0.4-1.3 1.3v7.8c0 1 0.3 1.3 1.3 1.3h3.9c0.9 0 1.3-0.3 1.3-1.3v-7.8q0-0.7-0.3-1-0.3-0.3-1-0.3z"/><path class="a" d="m4.4 10.2q0 0.3-0.1 0.4-0.1 0.1-0.4 0.1-0.2 0-0.3-0.1-0.2-0.1-0.2-0.4c0-0.3 0.2-0.5 0.5-0.5 0.3 0 0.5 0.2 0.5 0.5z"/><path fill-rule="evenodd" class="a" d="m3.4 10.7q-0.1-0.2-0.1-0.5c0-0.4 0.2-0.6 0.6-0.6 0.4 0 0.7 0.2 0.7 0.6q0 0.3-0.2 0.5-0.2 0.2-0.5 0.2-0.3 0-0.5-0.2zm0.5-0.8q-0.3 0-0.3 0.3 0 0.2 0.1 0.3 0.1 0.1 0.2 0.1 0.2 0 0.3-0.1 0.1-0.1 0.1-0.3 0-0.3-0.4-0.3z"/></svg>