<svg version="1.2" xmlns="http://www.w3.org/2000/svg" viewBox="0 0 12 12" width="12" height="12"><style>.a{fill:#fff}.b{fill:#5893e8}</style><path class="a" d="m3.4 0.6h5l3.2 3.2v7.7h-8.3z"/><path class="b" d="m3.3 7.5q-1.4 0-2.2-0.8-0.8-0.8-0.8-2.3 0-1.5 0.8-2.3 0.8-0.8 2.2-0.8 1.6 0 2.4 0.8 0.7 0.8 0.7 2.3 0 1.5-0.8 2.3-0.8 0.8-2.3 0.8z"/><path class="b" d="m5.2 2.6q0.6 0.5 0.6 1.8 0 2.4-2.5 2.4-2.4 0-2.4-2.4 0-2.4 2.4-2.4 1.3 0 1.9 0.6z"/><path class="b" d="m2.4 5.6q0-0.1 0-0.1 0-0.1 0.1-0.1 0 0 0.1 0c0.2 0.1 0.4 0.2 0.8 0.2 0.4 0 0.7-0.2 0.7-0.6 0-0.2-0.2-0.4-0.7-0.5h-0.1q-0.9-0.2-0.9-0.8c0-0.5 0.4-0.8 0.9-0.8q0.5 0 0.8 0.2 0.1 0 0.1 0.1 0 0.1-0.1 0.1-0.1 0-0.1 0-0.3-0.2-0.7-0.2c-0.4 0-0.6 0.3-0.6 0.6 0 0.3 0.2 0.5 0.7 0.5l0.1 0.1q0.8 0.1 0.8 0.7c0 0.5-0.3 0.9-1 0.9q-0.5 0-0.9-0.3z"/><path fill-rule="evenodd" class="a" d="m3.3 6q-0.5 0-0.9-0.3-0.2-0.1-0.2-0.2c0-0.2 0.2-0.3 0.3-0.3q0.1 0 0.2 0.1 0.3 0.2 0.7 0.2c0.3 0 0.6-0.2 0.6-0.5 0-0.1-0.1-0.3-0.6-0.4h-0.1c-0.8-0.1-1-0.5-1-0.9 0-0.6 0.4-0.9 1-0.9q0.5 0 0.9 0.2c0.1 0.1 0.1 0.2 0.1 0.2 0 0.1-0.1 0.2-0.2 0.2q-0.1 0-0.2 0-0.3-0.2-0.6-0.1c-0.3 0-0.5 0.1-0.5 0.4 0 0.1 0 0.3 0.6 0.4h0.1c0.8 0.1 1 0.6 1 0.9q0 0.5-0.3 0.7-0.3 0.3-0.9 0.3zm-0.8-0.5q0.1 0.1 0.2 0.1-0.1 0-0.2-0.1 0 0 0 0 0 0 0 0zm0 0q0 0 0 0 0 0 0 0zm1.1-1.1q0.4 0.1 0.6 0.3c-0.2-0.2-0.4-0.3-0.6-0.3zm-1-0.5q0.1 0.3 0.5 0.4-0.4-0.1-0.5-0.4z"/><path class="a" d="m3.3 6.4c-0.1 0-0.2-0.1-0.2-0.2v-3.7c0-0.1 0.1-0.2 0.2-0.2 0.2 0 0.3 0.1 0.3 0.2v3.7c0 0.1-0.1 0.2-0.3 0.2z"/><path fill-rule="evenodd" class="b" d="m7.6 11.9h-3.9q-0.3 0-0.5-0.2-0.2-0.2-0.2-0.5v-4c0-0.2 0.2-0.4 0.3-0.4 0.2 0 0.4 0.2 0.4 0.4v4q0 0 0 0 0 0 0 0h7.6v-7.5l-2.9-2.9c-1.7 0-4.3 0-4.7 0q0 0 0 0 0 0.1 0 0.1v0.8c0 0.1-0.2 0.3-0.4 0.3-0.1 0-0.3-0.2-0.3-0.3v-0.8c0-0.5 0.3-0.7 0.7-0.7 0.4 0 3.2 0 4.8 0q0.2 0 0.3 0.1l3 3.1q0.1 0.1 0.1 0.2v7.6c0 0.4-0.2 0.7-0.6 0.7-0.3 0-2 0-3.7 0zm2.5-2.1h-4.8c-0.2 0-0.3-0.2-0.3-0.4 0-0.2 0.1-0.3 0.3-0.3h4.8c0.2 0 0.4 0.1 0.4 0.3 0 0.2-0.2 0.4-0.4 0.4zm0-2h-4.2c-0.1 0-0.3-0.1-0.3-0.3 0-0.2 0.2-0.3 0.3-0.3h4.2c0.2 0 0.4 0.1 0.4 0.3 0 0.2-0.2 0.3-0.4 0.3zm0-2.2h-2.9c-0.2 0-0.3-0.2-0.3-0.4 0-0.2 0.1-0.3 0.3-0.3h2.9c0.2 0 0.4 0.1 0.4 0.3 0 0.2-0.2 0.4-0.4 0.4z"/><path fill-rule="evenodd" class="b" d="m11.6 3.9h-1.9q-0.8 0-1.2-0.5-0.3-0.5-0.3-1.3v-1.6c0-0.2 0.1-0.3 0.3-0.3q0.2 0 0.3 0.1l3 3.1c0.2 0.1 0.2 0.3 0 0.4q-0.1 0.1-0.2 0.1zm-2.7-2.6v0.8q0 0.6 0.2 0.9 0.2 0.3 0.6 0.3h1.1z"/></svg>