<?xml version="1.0" encoding="UTF-8"?><svg id="a" xmlns="http://www.w3.org/2000/svg" xmlns:xlink="http://www.w3.org/1999/xlink" viewBox="0 0 30.59 31.16"><defs><clipPath id="b"><rect width="30.59" height="31.16" style="fill:none;"/></clipPath></defs><g style="clip-path:url(#b);"><path d="M27.4,3.25C24.52,.33,20.37,0,15.29,0S6.07,.34,3.18,3.27C.29,6.2,.03,10.43,.03,15.6s.3,9.39,3.15,12.33c2.85,2.94,7.08,3.21,12.12,3.21s9.24-.3,12.12-3.21c2.88-2.91,3.15-7.16,3.15-12.33s-.26-9.4-3.15-12.34ZM14.17,21.36c0,.05-.02,.1-.06,.14-.04,.04-.08,.06-.13,.06h-2.61c-.05,0-.1-.02-.13-.06-.04-.04-.06-.08-.06-.14v-6.95c0-.05,.02-.1,.06-.14,.04-.04,.08-.06,.13-.06h2.61c.05,0,.1,.02,.13,.06,.04,.04,.06,.09,.06,.14v6.95Zm5.11,0c0,.05-.02,.1-.06,.14-.04,.04-.08,.06-.13,.06h-2.49s-.1-.02-.13-.06c-.04-.04-.06-.08-.06-.14v-5.99c0-1.05-.06-2.12-.59-2.67-.64-.45-1.42-.66-2.2-.59h-4.5c-.05,0-.1,.02-.14,.06-.04,.04-.06,.08-.06,.14v9.06c0,.05-.02,.1-.06,.14-.04,.04-.08,.06-.13,.06h-2.49c-.05,0-.1-.02-.13-.06-.04-.04-.06-.08-.06-.14V9.81c0-.05,.02-.1,.06-.14,.04-.04,.08-.06,.13-.06h7.17c1.87,0,3.83,.09,4.8,1.07,.97,.99,1.05,2.98,1.05,4.89v5.78Zm5.12,0c0,.05-.02,.1-.06,.14-.04,.04-.09,.06-.14,.06h-2.49c-.05,0-.1-.02-.13-.06-.04-.04-.06-.08-.06-.14V9.81c0-.05,.02-.1,.06-.14,.04-.04,.08-.06,.13-.06h2.49c.05,0,.1,.02,.14,.06,.04,.04,.06,.08,.06,.14v11.55Z" style="fill:#f28d15;"/></g></svg>