<svg version="1.2" xmlns="http://www.w3.org/2000/svg" viewBox="0 0 11 13" width="11" height="13"><style>.a{fill:#fff}</style><path fill-rule="evenodd" class="a" d="m3.1 6.1q-0.8-0.8-0.8-2.3 0-1.4 0.8-2.3 0.8-0.9 2.3-0.9 1.6 0.1 2.4 0.9 0.8 0.9 0.8 2.3 0 1.5-0.8 2.3-0.8 0.9-2.4 0.9-1.5 0-2.3-0.9zm0.1-2.3q0 2.2 2.2 2.2 2.3 0 2.3-2.2 0-2.2-2.3-2.2-2.2 0-2.2 2.2zm-2.8 8.7c-0.3 0-0.5-0.2-0.5-0.4v-0.9q0-1.7 0.9-2.6 0.9-0.9 2.6-0.9h4.1q1.7 0 2.6 0.9 0.9 0.9 0.9 2.6v0.9c0 0.2-0.2 0.4-0.5 0.4zm9.7-0.9v-0.4q0-1.3-0.6-2-0.6-0.6-1.9-0.6h-4.1q-1.4 0-2 0.6-0.6 0.7-0.6 2v0.4z"/></svg>