<svg xmlns="http://www.w3.org/2000/svg" viewBox="0 0 18.95 18.97"><defs><style>.cls-1{fill:#1c2b3b;}</style></defs><g id="Capa_2" data-name="Capa 2"><g id="Capa_1-2" data-name="Capa 1"><path class="cls-1" d="M17.34,0H11A1.6,1.6,0,0,0,9.4,1.6V5.48a1.53,1.53,0,0,0,1.52,1.61h.54V8.43c0,.38-.08.74.28.8s.65-.32.87-.59.83-.88,1.41-1.55h3.32A1.61,1.61,0,0,0,19,5.49V1.61A1.61,1.61,0,0,0,17.34,0Zm-3,6.05a.51.51,0,1,1,.51-.51A.51.51,0,0,1,14.34,6.05Zm.85-2.69c-.1.1-.37.28-.37.5v.2a.49.49,0,1,1-1,0v-.2a1.43,1.43,0,0,1,.57-1c.09-.08.31-.22.31-.43a.4.4,0,0,0-.4-.42.46.46,0,0,0-.48.41.48.48,0,1,1-1,0v0a1.3,1.3,0,0,1,1.44-1.33,1.39,1.39,0,0,1,1.39,1.34,1.17,1.17,0,0,1-.53,1ZM6.23,13a3.29,3.29,0,0,0,2.51-.92,3.4,3.4,0,0,0,.83-2.42,3.38,3.38,0,0,0-.83-2.42,3.26,3.26,0,0,0-2.51-.93,3.28,3.28,0,0,0-2.52.93,3.36,3.36,0,0,0-.82,2.42,3.4,3.4,0,0,0,.82,2.42A3.32,3.32,0,0,0,6.23,13Zm2.51,1h-5a3.75,3.75,0,0,0-2.77.95A3.81,3.81,0,0,0,0,17.69v1A.28.28,0,0,0,.27,19H12.18a.28.28,0,0,0,.27-.27v-1a3.76,3.76,0,0,0-.94-2.78A3.74,3.74,0,0,0,8.74,14Z"/></g></g></svg>