<svg version="1.2" xmlns="http://www.w3.org/2000/svg" viewBox="0 0 125 32" width="125" height="32"><style>.a{fill:#019df4}</style><path class="a" d="m12.9 6c1.1 1.1 3.2 4.5 4.3 6.3 1.3 2 2.9 3.4 4.9 3.2 1.6-0.2 2.6-1.2 3.3-2.8 0.7-1.6 1.9-4.8 3.3-7.8 1.6-3.4 4.5-5.1 7.1-4.9 2.3 0.1 4.2 1.8 5.3 4.4 1.2 2.8 1.8 5.9 2.1 9.4 0.1 3 0 4.9-0.4 7.8 0 0.6-0.2 1.4-0.4 1.9-0.4 1.4-1.5 2.5-2.9 2.3-1.3-0.2-1.8-1.3-1.9-2.5-0.1-0.6 0.1-1.6 0.1-2.2 0.2-1.4 0.4-3.4 0.4-5.2-0.1-2-0.4-3.4-1.8-3.9-1.5-0.5-3.3 1.1-4.7 4.1-1.2 2.6-1.9 5.2-3 8.6-1.4 4.5-4.2 6-8 6.1-3.7 0.2-6-2.1-7.2-4.2-1.4-2.3-3.1-5.3-4.1-7-0.8-1.5-1.7-2.6-2.8-2.4-0.6 0.1-1.5 0.5-1.4 2.8 0.1 1.8 0.9 4.3 1.5 6.3 0.2 0.7 0.6 1.9 0.7 2.7 0.3 1.8-0.4 2.5-1.1 2.8-0.5 0.3-1.9 0.4-2.7-0.7-0.3-0.3-0.7-0.9-0.9-1.5-0.7-1.6-1.8-4.6-2.3-8.1-0.7-3.7-0.4-6.9 0.3-9.9 1.7-6.9 5.4-7.9 7.5-7.9 2.5-0.1 3.7 1.3 4.8 2.3z"/><path class="a" d="m51 9.4h7.4l-0.1 1.3h-5.6v4.4h4.5v1.4h-4.5v4.5h5.8v1.4h-7.5z"/><path class="a" d="m60.6 13.1h1.3l0.1 0.7c1-0.6 2-1 3-1 1.2 0 2 0.4 2.5 1.1 1.2-0.7 2.3-1.1 3.3-1.1q1.6 0 2.4 0.8c0.5 0.5 0.8 1.3 0.8 2.5v6.3h-1.6v-6.2c0-0.8-0.2-1.2-0.5-1.5q-0.5-0.5-1.4-0.5c-0.8 0-1.7 0.2-2.5 0.6q0.1 0.5 0.1 1.3v6.3h-1.6v-6.2c0-0.8-0.1-1.2-0.4-1.5q-0.5-0.5-1.5-0.5c-0.8 0-1.7 0.2-2.4 0.6v7.6h-1.6z"/><path fill-rule="evenodd" class="a" d="m76.4 13.1h1.3l0.1 0.7c0.9-0.7 2-1 2.9-1 2.4 0 3.5 1.9 3.5 4.9 0 3.5-1.4 4.9-3.6 4.9-1 0-2-0.2-2.6-0.7v4.7h-1.6zm6.2 4.6c0-2.3-0.7-3.5-2.3-3.5-0.7 0-1.6 0.3-2.3 0.6v6c0.5 0.3 1.4 0.6 2.2 0.6 1.7 0 2.4-1 2.4-3.7z"/><path class="a" d="m86.2 13.1h1.3l0.1 0.8c0.9-0.8 1.8-1.1 2.6-1.1 0.2 0 0.4 0 0.6 0.1v1.4c-0.2 0-0.5-0.1-0.8-0.1-0.8 0-1.6 0.2-2.2 0.7v7.5h-1.6z"/><path fill-rule="evenodd" class="a" d="m92.7 21.5c-0.9-0.8-1.3-2.1-1.3-3.8 0-3.3 1.7-4.9 4.1-4.9 2.6 0 3.8 1.9 3.8 4.9v0.4q0 0.2-0.2 0.2h-6c0 1 0.3 1.8 0.8 2.3 0.5 0.5 1.2 0.7 2.4 0.7 0.6 0 1.5 0 2.3-0.2l0.1 1.2c-0.8 0.2-1.9 0.3-2.7 0.3q-2.2 0-3.3-1.1zm5-4.4c0-1.8-0.7-3-2.2-3-1.6 0-2.4 1.1-2.4 3z"/><path class="a" d="m101 22.2l0.1-1.2c0.8 0.2 1.8 0.4 2.6 0.4 1.5 0 2.3-0.5 2.3-1.5 0-2.1-5.1-1-5.1-4.4 0-1.8 1.4-2.7 3.3-2.7 1 0 2 0.2 2.8 0.4l-0.2 1.2c-0.8-0.2-1.7-0.3-2.4-0.3-1.3 0-2 0.4-2 1.3 0 2.1 5.1 1.1 5.1 4.4 0 2-1.5 2.8-3.7 2.8-0.9 0-2.1-0.1-2.8-0.4z"/><path fill-rule="evenodd" class="a" d="m109.8 21.7c-0.5-0.4-0.7-1.1-0.7-2 0-0.8 0.3-1.5 0.8-2 0.7-0.6 1.8-0.9 3.1-0.9h1.9v-0.6c0-0.7-0.1-1.2-0.4-1.5-0.4-0.4-1-0.6-2-0.6-0.7 0-1.6 0.1-2.5 0.2v-1.2c0.8-0.2 1.9-0.3 2.8-0.3 1.4 0 2.3 0.3 2.9 0.9 0.6 0.5 0.8 1.3 0.8 2.5v6.2h-1.3l-0.1-0.7c-0.8 0.6-1.8 0.9-2.9 0.9-1 0-1.8-0.3-2.4-0.9zm5.1-0.9v-2.8h-1.7c-0.9 0-1.6 0.1-2 0.5-0.4 0.2-0.6 0.6-0.6 1.2 0 1.1 0.8 1.7 2 1.7 0.7 0 1.6-0.3 2.3-0.6z"/><path class="a" d="m118.6 22.2l0.1-1.2c0.8 0.2 1.8 0.4 2.6 0.4 1.5 0 2.3-0.5 2.3-1.5 0-2.1-5.1-1-5.1-4.4 0-1.8 1.4-2.7 3.3-2.7 1 0 2 0.2 2.8 0.4l-0.2 1.2c-0.8-0.2-1.7-0.3-2.4-0.3-1.3 0-2 0.4-2 1.3 0 2.1 5.1 1.1 5.1 4.4 0 2-1.5 2.8-3.7 2.8-0.9 0-2.1-0.1-2.8-0.4z"/></svg>