<?xml version="1.0" encoding="utf-8"?>
<!-- Generator: Adobe Illustrator 26.0.0, SVG Export Plug-In . SVG Version: 6.00 Build 0)  -->
<svg version="1.1" id="Capa_1" xmlns="http://www.w3.org/2000/svg" xmlns:xlink="http://www.w3.org/1999/xlink" x="0px" y="0px"
	 viewBox="0 0 17 17" style="enable-background:new 0 0 17 17;" xml:space="preserve">
<style type="text/css">
	.st0{fill-rule:evenodd;clip-rule:evenodd;fill:#B6B7B7;}
</style>
<path class="st0" d="M14.4,3.6l0,0.5c0,0.4-0.3,2.7-2.2,4.2l-0.7,0.5l0.8,0.4c3,1.4,3.1,4.7,3.1,4.8c0,0.3-0.2,0.5-0.4,0.5
	c-0.2,0-0.4-0.2-0.4-0.5c0-0.4-0.2-3.6-3.9-4.4c0-0.2,0.1-0.4,0.1-0.7c0-0.3,0-0.6-0.1-0.9c2.7-1,3-3.4,3-3.9l0-0.6l-0.7,0l1.1-1.2
	l1.1,1.2L14.4,3.6L14.4,3.6z M2.4,14c0,0.3-0.2,0.5-0.4,0.5c-0.2,0-0.4-0.2-0.4-0.5c0-0.1,0.1-3.4,3.2-4.8l0.8-0.4L4.8,8.2
	C2.9,6.8,2.6,4.5,2.6,4.1L2.5,3.6l-0.6,0L3,2.4l1.1,1.2l-0.7,0l0,0.6c0,0.6,0.4,2.9,3,3.9C6.4,8.3,6.4,8.6,6.4,8.9
	c0,0.2,0,0.5,0.1,0.7C2.6,10.3,2.4,13.6,2.4,14z M9.6,8.9c0,0.2,0,0.4-0.1,0.5c0,0.2-0.1,0.3-0.2,0.4c-0.2,0.2-0.6,0.3-0.8,0.3
	c-0.3,0-0.6,0-0.8-0.2C7.6,9.8,7.5,9.6,7.5,9.5c0-0.2-0.1-0.3-0.1-0.5c0-0.2,0-0.4,0.1-0.6c0-0.1,0.1-0.2,0.2-0.3
	c0.2-0.2,0.6-0.3,0.8-0.3c0.3,0,0.6,0,0.8,0.3c0.1,0.1,0.1,0.2,0.2,0.3C9.6,8.5,9.6,8.7,9.6,8.9L9.6,8.9z M16.5,3.6l-2.1-2.2
	c-0.2-0.3-0.6-0.3-0.8-0.1l-2.2,2.3c-0.1,0.2-0.2,0.5-0.1,0.7c0.1,0.2,0.3,0.4,0.5,0.4l0.5,0c-0.2,0.8-0.8,2-2.5,2.5
	C9.5,6.9,9.1,6.7,8.5,6.7S7.4,6.9,7.1,7.1C5.4,6.6,4.8,5.4,4.6,4.6l0.5,0c0.2,0,0.4-0.1,0.5-0.4C5.8,4,5.7,3.8,5.6,3.5l-2-2.2
	L3.4,1.2C3.3,1.1,3.1,1.1,3,1.1S2.7,1.2,2.6,1.3L0.5,3.6C0.4,3.8,0.3,4,0.4,4.3C0.5,4.5,0.7,4.6,1,4.6l0.7,0
	c0.1,0.9,0.6,2.6,1.9,3.9c-3,1.9-3,5.4-3,5.4c0,0.8,0.6,1.5,1.5,1.5c0.8,0,1.4-0.7,1.5-1.5c0-0.3,0.2-2.9,3.5-3.4c0,0,0,0,0,0
	c0.4,0.4,0.9,0.6,1.5,0.6c0.7,0,1.2-0.2,1.5-0.5c0,0,0,0,0,0c3.2,0.5,3.4,2.9,3.4,3.4c0,0.8,0.7,1.5,1.5,1.5c0.8,0,1.5-0.7,1.5-1.5
	c0,0,0-3.5-3-5.4c1.4-1.3,1.8-3.1,1.9-3.9l0.7,0c0.2,0,0.4-0.1,0.5-0.4C16.7,4,16.6,3.8,16.5,3.6L16.5,3.6z"/>
</svg>
