<?xml version="1.0" encoding="utf-8"?>
<!-- Generator: Adobe Illustrator 25.4.1, SVG Export Plug-In . SVG Version: 6.00 Build 0)  -->
<svg version="1.1" id="lineas" xmlns="http://www.w3.org/2000/svg" xmlns:xlink="http://www.w3.org/1999/xlink" x="0px" y="0px"
	 viewBox="0 0 1411.6 1417" style="enable-background:new 0 0 1411.6 1417;" xml:space="preserve">
<style type="text/css">
	.st0{fill:#FFFFFF;stroke:#636363;stroke-width:4.8878;stroke-miterlimit:10;}
	.st1{fill:#50535a;}
	.st2{fill:#50535a;}
</style>
<g>
	<path class="st0" d="M11.9,328.4c0-173.7,140.8-314.4,314.4-314.4h758.3c173.7,0,314.4,140.8,314.4,314.4v758.3
		c0,173.7-140.8,314.4-314.4,314.4H326.4c-173.7,0-314.4-140.8-314.4-314.4L11.9,328.4L11.9,328.4z"/>
	<g>
		<path class="st1" d="M159.6,193c-16,0.3-45.6,8.2-59.2,63.4c-5.9,24.1-8.2,49.1-3.1,79c4.6,27.5,12.9,51.3,18.4,64.4
			c1.9,4.5,4.9,9.2,7.2,12.1c6.6,8.3,17.6,7.8,22.2,5.5c5-2.5,10.8-8.4,8.7-22.1c-1-6.6-3.9-16.2-5.6-21.6
			c-5-16.4-11.7-36.3-12.3-50.4c-0.8-18.9,6.7-21.4,11.6-22.5c8.3-1.8,15.3,7.3,21.9,18.8c7.9,13.7,21.5,37.9,32.5,56.4
			c10,16.7,28.4,34.6,58,33.3c30.2-1.2,52.4-12.8,63.8-49c8.6-27.1,14.4-47.4,23.8-68.1c10.8-23.9,25.2-36.6,37.4-32.7
			c11.3,3.6,14.1,14.6,14.2,30.8c0.1,14.3-1.5,30.1-2.8,41.7c-0.5,4.2-1.3,12.7-1,17.4c0.7,9.2,4.7,18.5,15.1,20
			c11.1,1.6,20-7.3,23.5-18c1.4-4.2,2.6-10.7,3.2-15.3c3.3-23.2,4.1-38.7,2.6-62.4c-1.7-27.7-7.1-53-16.6-74.8
			c-9-20.9-23.6-34.3-42.2-35.5c-20.6-1.3-44.3,12.4-56.7,38.9c-11.4,24.5-20.6,49.6-26.2,62.4c-5.6,13-13.9,21-26.6,22.4
			c-15.6,1.6-29-9.7-38.8-25.8c-8.6-14-25.5-40.8-34.6-49.8C189.7,203.2,179.9,192.7,159.6,193z"/>
	</g>
	<g>
		<path class="st2" d="M320.9,730c-29.4,0-53.2,23.8-53.2,53.2c0,29.4,23.8,53.2,53.2,53.2c29.4,0,53.2-23.8,53.2-53.2
			C374.1,753.9,350.3,730,320.9,730z"/>
		<path class="st2" d="M1090.1,730c-29.4,0-53.2,23.8-53.2,53.2c0,29.4,23.8,53.2,53.2,53.2c29.4,0,53.2-23.8,53.2-53.2
			C1143.4,753.9,1119.6,730,1090.1,730z"/>
		<path class="st2" d="M897.1,466.2c-29.4,0-53.2,23.8-53.2,53.2v400.1c0,29.4,23.8,53.2,53.2,53.2c29.4,0,53.2-23.8,53.2-53.2
			V519.4C950.3,490,926.5,466.2,897.1,466.2z"/>
		<path class="st2" d="M705.8,177.7c-29.4,0-53.2,23.8-53.2,53.2v961c0,29.4,23.8,53.2,53.2,53.2c29.4,0,53.2-23.8,53.2-53.2v-961
			C759.1,201.5,735.2,177.7,705.8,177.7z"/>
		<path class="st2" d="M520.2,607.8c-29.4,0-53.2,23.8-53.2,53.2v382.8c0,29.4,23.8,53.2,53.2,53.2c29.4,0,53.2-23.8,53.2-53.2V661
			C573.4,631.6,549.6,607.8,520.2,607.8z"/>
	</g>
</g>
</svg>
