<?xml version="1.0" encoding="utf-8"?>
<!-- Generator: Adobe Illustrator 26.0.0, SVG Export Plug-In . SVG Version: 6.00 Build 0)  -->
<svg version="1.1" id="Capa_1" xmlns="http://www.w3.org/2000/svg" xmlns:xlink="http://www.w3.org/1999/xlink" x="0px" y="0px"
	 viewBox="0 0 17 17" style="enable-background:new 0 0 17 17;" xml:space="preserve">
<style type="text/css">
	.st0{fill:#B6B7B7;}
</style>
<g>
	<path class="st0" d="M12.6,12H9.8C9.3,12,9,11.7,9,11.2V3.4C9,3,9.3,2.7,9.8,2.7h3.4c0.1,0,0.2,0.1,0.3,0.1l2.3,2.3
		C15.9,5.2,16,5.3,16,5.5v5.8c0,0.4-0.3,0.7-0.7,0.7C15,12,13.8,12,12.6,12z M10,11h5V5.7l-2-2.1h-3V11z"/>
	<path class="st0" d="M13.9,7.5h-2.8c-0.2,0-0.4-0.2-0.4-0.4c0-0.2,0.2-0.4,0.4-0.4h2.8c0.2,0,0.4,0.2,0.4,0.4
		C14.2,7.3,14.1,7.5,13.9,7.5z M13.9,8.9h-2.8c-0.2,0-0.4-0.2-0.4-0.4s0.2-0.4,0.4-0.4h2.8c0.2,0,0.4,0.2,0.4,0.4S14.1,8.9,13.9,8.9
		z M13.9,10.3h-2.8c-0.2,0-0.4-0.2-0.4-0.4c0-0.2,0.2-0.4,0.4-0.4h2.8c0.2,0,0.4,0.2,0.4,0.4C14.2,10.1,14.1,10.3,13.9,10.3z
		 M15.3,6.2h-0.9c-1.2,0-1.9-0.7-1.9-1.9V3.4c0-0.3,0.2-0.5,0.5-0.5s0.5,0.2,0.5,0.5v0.9c0,0.3,0.1,0.6,0.2,0.7
		c0.1,0.1,0.4,0.2,0.7,0.2h0.9c0.3,0,0.5,0.2,0.5,0.5S15.5,6.2,15.3,6.2z M7.4,13.2c-0.4,0-0.7,0.2-0.7,0.7c0,0.2,0.1,0.4,0.2,0.5
		c0.1,0.1,0.3,0.2,0.5,0.2c0.2,0,0.4-0.1,0.5-0.2c0.1-0.1,0.2-0.3,0.2-0.5C8.1,13.5,7.9,13.2,7.4,13.2z"/>
	<path class="st0" d="M7.4,14.9c-0.3,0-0.5-0.1-0.7-0.3c-0.2-0.2-0.2-0.4-0.2-0.7c0-0.6,0.3-1,0.9-1s0.9,0.4,0.9,1
		c0,0.3-0.1,0.5-0.2,0.7C8,14.8,7.7,14.9,7.4,14.9L7.4,14.9z M7.4,13.5C7.1,13.5,7,13.6,7,14c0,0.2,0,0.3,0.1,0.4
		c0.1,0.1,0.2,0.1,0.4,0.1s0.3,0,0.4-0.1c0.1-0.1,0.1-0.2,0.1-0.4C7.9,13.6,7.7,13.5,7.4,13.5z"/>
	<path class="st0" d="M10.2,16.9H4.7c-0.9,0-1.6-0.2-2.1-0.7c-0.5-0.5-0.7-1.2-0.7-2.1V2.9c0-0.9,0.2-1.6,0.7-2.1s1.1-0.7,2.1-0.7
		h5.5c0.9,0,1.6,0.2,2.1,0.7C12.7,1.3,13,2,13,2.9c0,0.3-0.2,0.5-0.5,0.5S12,3.2,12,2.9C12,1.6,11.5,1,10.2,1H4.7
		C4,1,3.5,1.2,3.2,1.5S2.8,2.2,2.8,2.9v11.2c0,1.4,0.5,1.9,1.8,1.9h5.5c1.3,0,1.8-0.5,1.8-1.9v-2.4c0-0.3,0.2-0.5,0.5-0.5
		s0.5,0.2,0.5,0.5v2.4c0,1-0.2,1.6-0.7,2.1C11.8,16.7,11.1,16.9,10.2,16.9L10.2,16.9z"/>
</g>
</svg>
