<?xml version="1.0" encoding="utf-8"?>
<!-- Generator: Adobe Illustrator 26.0.0, SVG Export Plug-In . SVG Version: 6.00 Build 0)  -->
<svg version="1.1" id="Capa_1" xmlns="http://www.w3.org/2000/svg" xmlns:xlink="http://www.w3.org/1999/xlink" x="0px" y="0px"
	 viewBox="0 0 17 17" style="enable-background:new 0 0 17 17;" xml:space="preserve">
<style type="text/css">
	.st0{fill:#B6B7B7;}
</style>
<g>
	<path class="st0" d="M9.3,3.5c0.5,0,0.8,0.3,0.8,0.8v7.5c0,0.5-0.3,0.8-0.8,0.8H5.3c-0.5,0-0.8-0.3-0.8-0.8V5.4l1.8-1.9H9.3
		 M9.3,2.5H6.4c-0.3,0-0.5,0.1-0.7,0.3L3.9,4.7C3.7,4.9,3.6,5.2,3.6,5.4v6.4c0,0.6,0.2,1.1,0.5,1.3c0.2,0.2,0.6,0.5,1.3,0.5h3.9
		c0.7,0,1.1-0.3,1.3-0.5c0.2-0.2,0.5-0.6,0.5-1.3V4.3c0-0.6-0.2-1.1-0.5-1.3C10.4,2.8,10,2.5,9.3,2.5L9.3,2.5z"/>
	<path class="st0" d="M9.1,11.7H5.5c-0.1,0-0.2-0.1-0.2-0.2V7.1c0-0.1,0.1-0.2,0.2-0.2h3.7c0.1,0,0.2,0.1,0.2,0.2v4.3
		C9.4,11.5,9.3,11.7,9.1,11.7z M5.7,11.2h3.2V7.3H5.7V11.2z"/>
	<path class="st0" d="M6.7,8.8c-0.1,0-0.2-0.1-0.2-0.2V7.1c0-0.1,0.1-0.2,0.2-0.2S6.9,7,6.9,7.1v1.4C6.9,8.7,6.8,8.8,6.7,8.8z
		 M7.9,8.8c-0.1,0-0.2-0.1-0.2-0.2V7.1c0-0.1,0.1-0.2,0.2-0.2S8.1,7,8.1,7.1v1.4C8.1,8.7,8,8.8,7.9,8.8z M6.7,11.6
		c-0.1,0-0.2-0.1-0.2-0.2V10c0-0.1,0.1-0.2,0.2-0.2S6.9,9.8,6.9,10v1.4C6.9,11.5,6.8,11.6,6.7,11.6z M7.9,11.6
		c-0.1,0-0.2-0.1-0.2-0.2V10c0-0.1,0.1-0.2,0.2-0.2S8.1,9.8,8.1,10v1.4C8.1,11.5,8,11.6,7.9,11.6z"/>
	<path class="st0" d="M9.1,8.8H5.5c-0.1,0-0.2-0.1-0.2-0.2c0-0.1,0.1-0.2,0.2-0.2h3.7c0.1,0,0.2,0.1,0.2,0.2
		C9.4,8.7,9.3,8.8,9.1,8.8z M9.1,10.2H5.5c-0.1,0-0.2-0.1-0.2-0.2s0.1-0.2,0.2-0.2h3.7c0.1,0,0.2,0.1,0.2,0.2S9.3,10.2,9.1,10.2z
		 M14.4,10.9c-0.3,0-0.6-0.1-0.8-0.4c-0.2-0.2-0.5-0.6-1.1-1.3l-0.3-0.4c-0.2-0.2-0.1-0.5,0-0.7c0.2-0.2,0.5-0.2,0.7,0.1l0.3,0.4
		c0.5,0.7,0.9,1.1,1.1,1.3c0.1,0.1,0.2,0.1,0.2,0.1c0,0,0.1,0,0.2-0.1C14.8,9.5,15,9.2,15.2,9c0.2-0.3,0.5-0.6,0.7-0.8
		c0.2-0.2,0.5-0.2,0.7,0c0.2,0.2,0.2,0.5,0,0.7C16.4,9,16.2,9.3,16,9.6c-0.2,0.3-0.5,0.6-0.7,0.8C15,10.7,14.7,10.9,14.4,10.9
		L14.4,10.9z"/>
	<path class="st0" d="M7.6,16c-2.4,0-4.2-0.6-5.4-1.9c-1.3-1.3-2-3.3-2-5.9s0.7-4.5,2-5.9c1.3-1.3,3.1-1.9,5.4-1.9s4.2,0.6,5.4,1.9
		c1.3,1.3,2,3.3,2,5.9c0,0.3-0.2,0.5-0.5,0.5c-0.3,0-0.5-0.2-0.5-0.5c0-2.3-0.6-4-1.7-5.1C11.3,2,9.7,1.5,7.6,1.5S3.9,2,2.8,3.1
		C1.7,4.3,1.1,6,1.1,8.3s0.6,4,1.7,5.1c1.1,1.1,2.7,1.6,4.8,1.6c1.4,0,2.7-0.3,3.6-0.8c0.2-0.1,0.5,0,0.6,0.2c0.1,0.2,0,0.5-0.2,0.7
		C10.5,15.8,9.2,16,7.6,16L7.6,16z"/>
	<path class="st0" d="M14.4,10.8c-0.3,0-0.5-0.2-0.5-0.5c0,0,0-0.1,0-0.1C14,9.6,14,9,14,8.3c0-0.3,0.2-0.5,0.5-0.5
		C14.8,7.8,15,8,15,8.3c0,0.8-0.1,1.5-0.2,2.1C14.8,10.7,14.6,10.8,14.4,10.8L14.4,10.8z"/>
</g>
</svg>
