<?xml version="1.0" encoding="utf-8"?>
<!-- Generator: Adobe Illustrator 26.0.0, SVG Export Plug-In . SVG Version: 6.00 Build 0)  -->
<svg version="1.1" id="Capa_1" xmlns="http://www.w3.org/2000/svg" xmlns:xlink="http://www.w3.org/1999/xlink" x="0px" y="0px"
	 viewBox="0 0 17 17" style="enable-background:new 0 0 17 17;" xml:space="preserve">
<style type="text/css">
	.st0{fill:#B6B7B7;}
</style>
<g>
	<path class="st0" d="M3.6,8.6c-0.1,0-0.1-0.1-0.1-0.2c0-0.1,0.1-0.2,0.2-0.2c0,0,0.1,0,0.1,0c0.3,0.2,0.6,0.4,1.1,0.4
		c0.6,0,1-0.3,1-0.8c0-0.4-0.2-0.7-1-0.8L4.8,7C4,6.9,3.6,6.5,3.6,5.9c0-0.7,0.5-1.1,1.3-1.1c0.4,0,0.8,0.1,1,0.3C6,5.1,6,5.2,6,5.2
		C6,5.3,6,5.4,5.9,5.4h0c0,0-0.1,0-0.1,0C5.5,5.2,5.2,5.1,4.9,5.1C4.3,5.1,4,5.5,4,5.9c0,0.4,0.3,0.7,0.9,0.8l0.2,0
		c0.8,0.1,1.2,0.5,1.2,1.1C6.3,8.5,5.8,9,4.8,9C4.4,9,4,8.9,3.6,8.6L3.6,8.6z"/>
	<path class="st0" d="M4.8,9.2C4.4,9.2,3.9,9,3.5,8.8C3.4,8.7,3.3,8.6,3.3,8.4c0-0.2,0.2-0.3,0.3-0.3c0.1,0,0.2,0,0.2,0.1
		c0.3,0.2,0.7,0.3,1,0.3c0.5,0,0.9-0.3,0.9-0.7c0-0.3-0.1-0.5-0.8-0.6l-0.2,0C3.7,7.1,3.4,6.4,3.4,5.9c0-0.8,0.6-1.3,1.4-1.3
		c0.4,0,0.8,0.1,1.1,0.3C6.2,5,6.2,5.2,6.2,5.2c0,0.2-0.1,0.3-0.3,0.3c-0.1,0-0.1,0-0.2-0.1l0,0C5.4,5.4,5.1,5.3,4.9,5.3
		c-0.5,0-0.7,0.2-0.7,0.6c0,0.2,0,0.5,0.8,0.6l0.2,0c1.1,0.1,1.3,0.8,1.3,1.3c0,0.4-0.1,0.7-0.4,1C5.7,9.1,5.3,9.2,4.8,9.2L4.8,9.2z
		 M3.7,8.5C3.8,8.5,3.9,8.6,4,8.6C3.9,8.6,3.8,8.5,3.7,8.5C3.7,8.5,3.7,8.5,3.7,8.5L3.7,8.5z M5.3,6.9C5.6,7,5.9,7.2,6,7.4
		C5.8,7.1,5.5,7,5.3,6.9L5.3,6.9z M3.9,6.3c0.1,0.3,0.3,0.4,0.7,0.5C4.2,6.7,4,6.5,3.9,6.3z"/>
	<path class="st0" d="M4.9,9.7c-0.2,0-0.3-0.1-0.3-0.3V4.4c0-0.2,0.1-0.3,0.3-0.3c0.2,0,0.3,0.1,0.3,0.3v5.1
		C5.2,9.6,5.1,9.7,4.9,9.7z"/>
	<path class="st0" d="M4.9,11.1c-1.3,0-2.3-0.3-3-1C1.2,9.3,0.8,8.3,0.8,6.9s0.4-2.4,1.1-3.1c0.7-0.7,1.7-1,3-1s2.3,0.3,3,1
		C8.6,4.5,9,5.5,9,6.9S8.6,9.3,7.9,10C7.2,10.7,6.2,11.1,4.9,11.1z M4.9,3.7c-1,0-1.8,0.3-2.3,0.8C2,5,1.7,5.8,1.7,6.9
		S2,8.8,2.5,9.3c0.5,0.5,1.3,0.8,2.3,0.8s1.8-0.3,2.3-0.8C7.8,8.8,8,8,8,6.9S7.8,5,7.2,4.5C6.7,3.9,5.9,3.7,4.9,3.7L4.9,3.7z"/>
	<path class="st0" d="M12.6,16.8H7.2c-0.9,0-1.6-0.2-2-0.7C4.6,15.7,4.4,15,4.4,14v-3.2c0-0.3,0.2-0.5,0.5-0.5
		c0.3,0,0.5,0.2,0.5,0.5V14c0,1.3,0.5,1.8,1.8,1.8h5.4c1.3,0,1.8-0.5,1.8-1.8V3c0-0.7-0.1-1.1-0.4-1.4s-0.7-0.4-1.4-0.4H7.2
		C5.9,1.2,5.4,1.7,5.4,3c0,0.3-0.2,0.5-0.5,0.5C4.6,3.5,4.4,3.3,4.4,3c0-0.9,0.2-1.6,0.7-2.1c0.5-0.5,1.1-0.7,2-0.7h5.4
		c0.9,0,1.6,0.2,2,0.7c0.5,0.5,0.7,1.1,0.7,2.1v11c0,0.9-0.2,1.6-0.7,2.1C14.2,16.6,13.5,16.8,12.6,16.8z"/>
	<path class="st0" d="M9.9,13.2c-0.4,0-0.7,0.2-0.7,0.7c0,0.2,0.1,0.4,0.2,0.5c0.1,0.1,0.3,0.2,0.5,0.2c0.2,0,0.4-0.1,0.5-0.2
		c0.1-0.1,0.2-0.3,0.2-0.5C10.6,13.4,10.3,13.2,9.9,13.2z"/>
	<path class="st0" d="M9.9,14.8c-0.3,0-0.5-0.1-0.7-0.3c-0.2-0.2-0.2-0.4-0.2-0.7c0-0.6,0.3-0.9,0.9-0.9s0.9,0.4,0.9,0.9
		c0,0.3-0.1,0.5-0.2,0.7C10.4,14.8,10.2,14.8,9.9,14.8L9.9,14.8z M9.9,13.4c-0.3,0-0.5,0.1-0.5,0.5c0,0.2,0,0.3,0.1,0.4
		s0.2,0.1,0.3,0.1c0.2,0,0.3,0,0.3-0.1c0.1-0.1,0.1-0.2,0.1-0.4C10.3,13.6,10.2,13.4,9.9,13.4z"/>
</g>
</svg>
