<?xml version="1.0" encoding="utf-8"?>
<!-- Generator: Adobe Illustrator 26.1.0, SVG Export Plug-In . SVG Version: 6.00 Build 0)  -->
<svg version="1.1" id="Capa_1" xmlns="http://www.w3.org/2000/svg" xmlns:xlink="http://www.w3.org/1999/xlink" x="0px" y="0px"
	 width="17px" height="17px" viewBox="0 0 17 17" enable-background="new 0 0 17 17" xml:space="preserve">
<path fill="none" stroke="#50535A" stroke-miterlimit="10" d="M15.466,4.704c-0.158,0.627-0.322,1.254-0.475,1.883
	c-0.338,1.396-0.673,2.792-1.007,4.19c-0.032,0.134-0.043,0.273-0.069,0.409c-0.165,0.867-0.905,1.484-1.802,1.486
	c-2.289,0.002-4.577,0.002-6.865-0.005c-0.974-0.002-1.72-0.727-1.844-1.677c-0.078-0.604-0.26-1.195-0.401-1.79
	C2.652,7.725,2.299,6.25,1.942,4.776C1.89,4.563,1.907,4.384,2.097,4.252c0.177-0.125,0.348-0.103,0.567,0.066
	c1.084,0.836,2.167,1.674,3.251,2.51c0.063,0.049,0.128,0.095,0.202,0.149c0.572-0.674,1.136-1.34,1.701-2.006
	c0.161-0.19,0.322-0.382,0.484-0.572c0.241-0.283,0.524-0.285,0.763-0.002c0.664,0.784,1.326,1.57,1.99,2.355
	c0.061,0.072,0.123,0.144,0.197,0.232c0.491-0.378,0.973-0.748,1.455-1.118c0.647-0.499,1.294-0.999,1.942-1.497
	c0.367-0.282,0.558-0.253,0.818,0.116C15.466,4.558,15.466,4.631,15.466,4.704"/>
</svg>
