<svg version="1.2" xmlns="http://www.w3.org/2000/svg" viewBox="0 0 11 13" width="11" height="13"><style>.a{fill:#589cf1}.b{fill:#fff}</style><path class="a" d="m2.4 6.3q-0.1 0-0.1-0.1 0-0.1 0.1-0.1 0.1 0 0.1 0c0.2 0.1 0.5 0.3 0.8 0.3 0.5 0 0.8-0.3 0.8-0.6 0-0.3-0.2-0.5-0.7-0.6h-0.2c-0.5-0.1-0.8-0.4-0.8-0.8 0-0.5 0.4-0.8 0.9-0.8q0.5 0 0.8 0.2 0 0.1 0 0.1 0 0.1-0.1 0.1 0 0-0.1 0-0.3-0.2-0.6-0.2c-0.4 0-0.7 0.3-0.7 0.6 0 0.3 0.2 0.5 0.7 0.6h0.2q0.8 0.1 0.8 0.8c0 0.4-0.3 0.8-1 0.8q-0.5 0-0.9-0.3z"/><path class="a" d="m3.3 8.1q-1.4-0.1-2.2-0.8-0.7-0.7-0.7-2.2 0-1.5 0.7-2.2 0.8-0.8 2.2-0.8 1.4 0 2.2 0.8 0.8 0.7 0.8 2.2 0 1.5-0.8 2.2-0.8 0.7-2.2 0.8z"/><path class="a" d="m8.9 12.1h-4q-0.9 0-1.4-0.4-0.5-0.5-0.5-1.5v-2.3c0-0.2 0.1-0.3 0.3-0.3 0.2 0 0.3 0.1 0.3 0.3v2.3c0 0.9 0.4 1.3 1.3 1.3h4c0.9 0 1.3-0.4 1.3-1.3v-7.9q0-0.7-0.3-1-0.3-0.3-1-0.3h-4c-0.9 0-1.3 0.4-1.3 1.3 0 0.2-0.1 0.4-0.3 0.4-0.2 0-0.3-0.2-0.3-0.4q0-0.9 0.5-1.4 0.5-0.5 1.4-0.5h4q1 0 1.4 0.4 0.5 0.5 0.5 1.5v7.9q0 1-0.5 1.5-0.4 0.4-1.4 0.4z"/><path class="a" d="m7.4 10.1q0 0.2-0.1 0.3-0.2 0.2-0.4 0.2-0.2 0-0.4-0.2-0.1-0.1-0.1-0.3c0-0.4 0.2-0.5 0.5-0.5 0.3 0 0.5 0.1 0.5 0.5z"/><path fill-rule="evenodd" class="a" d="m6.4 10.6q-0.2-0.2-0.2-0.5c0-0.4 0.3-0.7 0.7-0.7 0.4 0 0.7 0.3 0.7 0.7q0 0.3-0.2 0.5-0.2 0.1-0.5 0.1-0.3 0-0.5-0.1zm0.5-0.9q-0.3 0-0.3 0.4 0 0.1 0.1 0.2 0 0.1 0.2 0.1 0.2 0 0.3-0.1 0-0.1 0-0.2 0-0.4-0.3-0.4z"/><path fill-rule="evenodd" class="b" d="m2.3 6.4q-0.1-0.1-0.1-0.2c0-0.1 0.1-0.2 0.2-0.2q0.1 0 0.2 0 0.4 0.2 0.7 0.2c0.4 0 0.6-0.1 0.6-0.4 0-0.2 0-0.4-0.6-0.5h-0.1c-0.8-0.1-0.9-0.5-0.9-0.9 0-0.6 0.4-0.9 1-0.9q0.5 0 0.8 0.2c0.1 0.1 0.2 0.2 0.2 0.2 0 0.1-0.1 0.3-0.3 0.3q-0.1 0-0.1-0.1-0.3-0.1-0.6-0.1c-0.3 0-0.5 0.1-0.5 0.4 0 0.1 0 0.4 0.5 0.4h0.2c0.8 0.1 0.9 0.6 0.9 1q0 0.4-0.3 0.7-0.3 0.2-0.8 0.2-0.5 0-1-0.3zm0.2-0.2q0.1 0.1 0.2 0.1-0.1 0-0.2-0.1 0 0 0 0zm1.6-0.8c-0.1-0.2-0.3-0.2-0.5-0.3q0.4 0.1 0.5 0.3zm-1.5-0.7q0.1 0.2 0.4 0.3-0.3-0.1-0.4-0.3z"/><path class="b" d="m3.3 7.1c-0.1 0-0.2-0.1-0.2-0.2v-3.6c0-0.1 0.1-0.2 0.2-0.2 0.1 0 0.2 0.1 0.2 0.2v3.6c0 0.1-0.1 0.2-0.2 0.2z"/></svg>