<svg version="1.2" xmlns="http://www.w3.org/2000/svg" viewBox="0 0 12 13" width="12" height="13"><style>.a{fill:#fff}</style><path class="a" d="m2.8 6.6q0 0 0-0.1c0-0.1 0-0.1 0.1-0.1q0 0 0.1 0c0.2 0.1 0.5 0.3 0.8 0.3 0.5 0 0.8-0.3 0.8-0.7 0-0.3-0.1-0.5-0.7-0.6h-0.2c-0.6-0.1-0.9-0.4-0.9-0.8 0-0.6 0.4-0.9 1-0.9q0.5 0 0.8 0.2 0.1 0 0.1 0.1 0 0.1-0.1 0.1 0 0-0.1 0-0.3-0.2-0.7-0.2c-0.4 0-0.7 0.3-0.7 0.6 0 0.4 0.2 0.6 0.7 0.6h0.2q0.9 0.2 0.9 0.9c0 0.5-0.4 0.9-1.1 0.9q-0.5 0-1-0.3z"/><path fill-rule="evenodd" class="a" d="m2.7 6.7q-0.1-0.1-0.1-0.2c0-0.2 0.1-0.3 0.3-0.3q0.1 0 0.2 0.1 0.4 0.2 0.7 0.2c0.5 0 0.7-0.2 0.7-0.5 0-0.2-0.1-0.4-0.6-0.5h-0.2c-0.8-0.1-1-0.6-1-1 0-0.6 0.4-1 1.1-1q0.5 0 0.9 0.3c0.1 0 0.2 0.1 0.2 0.2 0 0.1-0.2 0.3-0.3 0.3q-0.1 0-0.2-0.1-0.3-0.2-0.6-0.1c-0.3 0-0.6 0.1-0.6 0.4 0 0.2 0 0.4 0.7 0.5h0.1c0.9 0.1 1.1 0.6 1.1 1q-0.1 0.5-0.4 0.8-0.3 0.2-0.9 0.3-0.6-0.1-1.1-0.4zm0.2-0.2q0.1 0.1 0.2 0.1-0.1 0-0.2-0.1 0 0 0 0zm1.8-0.8c-0.1-0.3-0.4-0.4-0.6-0.4q0.4 0.1 0.6 0.4zm-1.7-0.9q0.1 0.3 0.5 0.4-0.4-0.1-0.5-0.4z"/><path class="a" d="m3.8 7.5c-0.1 0-0.2-0.1-0.2-0.3v-3.9c0-0.1 0.1-0.2 0.2-0.2 0.2 0 0.3 0.1 0.3 0.2v3.9c0 0.2-0.1 0.3-0.3 0.3z"/><path fill-rule="evenodd" class="a" d="m3.8 8.5q-1.5 0-2.3-0.8-0.9-0.8-0.9-2.4 0-1.6 0.9-2.4 0.8-0.8 2.3-0.8 1.6 0 2.4 0.8 0.8 0.8 0.8 2.4 0 1.6-0.8 2.4-0.8 0.8-2.4 0.8zm-1.8-5.1q-0.6 0.6-0.6 1.9 0 1.3 0.6 1.9 0.6 0.6 1.8 0.6 1.3 0 1.9-0.6 0.6-0.6 0.6-1.9 0-1.3-0.6-1.9-0.6-0.6-1.9-0.6-1.2 0-1.8 0.6z"/><path class="a" d="m9.9 12.9h-4.3q-1.1 0-1.6-0.5-0.5-0.5-0.5-1.6v-2.5c0-0.2 0.1-0.3 0.3-0.3 0.2 0 0.4 0.1 0.4 0.3v2.5c0 1 0.4 1.4 1.4 1.4h4.3c1 0 1.4-0.4 1.4-1.4v-8.5q0-0.8-0.3-1.1-0.4-0.3-1.1-0.3h-4.3c-1 0-1.4 0.4-1.4 1.4 0 0.2-0.2 0.3-0.4 0.3-0.2 0-0.3-0.1-0.3-0.3q0-1.1 0.5-1.6 0.5-0.6 1.6-0.6h4.3q1 0 1.6 0.6 0.5 0.5 0.5 1.6v8.5q0 1.1-0.5 1.6-0.6 0.5-1.6 0.5z"/><path class="a" d="m8.3 10.7q0 0.3-0.2 0.4-0.1 0.1-0.4 0.1-0.2 0-0.4-0.1-0.1-0.1-0.1-0.4c0-0.4 0.2-0.5 0.5-0.5 0.4 0 0.6 0.1 0.6 0.5z"/><path fill-rule="evenodd" class="a" d="m7.2 11.2q-0.2-0.2-0.2-0.5c0-0.5 0.3-0.7 0.7-0.7 0.5 0 0.8 0.2 0.8 0.7q0 0.3-0.2 0.5-0.2 0.2-0.6 0.2-0.3 0-0.5-0.2zm0.5-0.9q-0.3 0-0.3 0.4 0 0.2 0.1 0.3 0.1 0.1 0.2 0.1 0.2 0 0.3-0.1 0.1-0.1 0.1-0.3 0-0.4-0.4-0.4z"/></svg>