<?xml version="1.0" encoding="UTF-8"?><svg xmlns="http://www.w3.org/2000/svg" viewBox="0 0 112.5 29.5"><defs><style>.d{fill:#019df4;}</style></defs><g id="a"/><g id="b"><g id="c"><g><path class="d" d="M90.75,29.5c-.28-.04-.56-.07-.84-.11-1.39-.18-2.73-.54-3.96-1.22-1.96-1.08-3.29-2.7-4.09-4.77-.73-1.88-.98-3.84-.79-5.85,.12-1.26,.41-2.47,.9-3.63,1.18-2.75,3.22-4.52,6.09-5.34,1.14-.32,2.31-.48,3.5-.49,3.48-.01,6.96-.02,10.43,0,1.51,0,2.99,.25,4.41,.79,2.54,.98,4.26,2.77,5.27,5.27,.39,.96,.62,1.97,.76,3,.03,.2,.05,.4,.07,.59v2.09c-.02,.21-.04,.41-.07,.62-.14,1.02-.37,2.01-.75,2.97-.81,2.03-2.1,3.64-4.03,4.72-1.26,.7-2.61,1.08-4.03,1.26-.28,.04-.56,.07-.84,.11h-12.03Zm6.02-4.89h0c1.6,0,3.2,0,4.81,0,.58,0,1.15-.05,1.72-.17,1.81-.39,3.09-1.42,3.76-3.15,.65-1.7,.64-3.4-.04-5.09-.62-1.54-1.75-2.52-3.34-2.96-.67-.19-1.37-.26-2.06-.26-3.22,0-6.44,0-9.67,0-.54,0-1.08,.05-1.61,.16-1.79,.34-3.09,1.33-3.79,3.04-.7,1.73-.7,3.48-.01,5.22,.59,1.47,1.65,2.43,3.16,2.91,.7,.22,1.43,.31,2.16,.31,1.64,0,3.28,0,4.92,0Z"/><path class="d" d="M0,9.06s.04-.04,.06-.06c.16-.32,.45-.41,.78-.42,.15,0,.29,0,.44,0,.92,0,1.85,0,2.77,0,.32,0,.64,.04,.95,.09,.34,.05,.62,.23,.83,.5,.15,.19,.29,.38,.42,.58,3.06,4.67,6.13,9.33,9.19,14,.11,.16,.21,.32,.33,.47,.46,.53,1.16,.53,1.62,0,.11-.13,.21-.28,.3-.42,3.08-4.69,6.16-9.38,9.23-14.07,.11-.17,.23-.33,.35-.49,.27-.37,.65-.56,1.1-.61,.25-.02,.49-.05,.74-.05,1.03,0,2.05,0,3.08,0,.15,0,.31,.01,.46,.05,.37,.09,.55,.39,.43,.75-.06,.21-.17,.41-.29,.59-1.54,2.34-3.08,4.68-4.62,7.02-1.94,2.94-3.87,5.89-5.82,8.82-.37,.56-.77,1.09-1.19,1.61-.24,.31-.53,.58-.82,.85-.74,.67-1.63,1.03-2.62,1.16-.09,.01-.18,.04-.26,.06h-1.76c-.24-.04-.48-.08-.73-.13-1.09-.22-1.97-.79-2.72-1.6-.53-.58-.98-1.2-1.41-1.85C7.42,20.69,3.97,15.46,.54,10.24c-.17-.25-.3-.52-.46-.78-.02-.03-.05-.04-.08-.07v-.33Z"/><path class="d" d="M62.46,29.5c-.17-.03-.34-.07-.51-.1-1.02-.16-1.88-.62-2.62-1.34-.64-.62-1.17-1.34-1.66-2.08-3.52-5.34-7.04-10.68-10.55-16.03-.12-.18-.22-.39-.27-.59-.08-.35,.11-.63,.46-.73,.13-.03,.27-.05,.41-.05,1.05,0,2.11,0,3.16,0,.3,0,.6,.04,.9,.09,.33,.05,.6,.23,.81,.48,.15,.19,.29,.38,.42,.58,3.08,4.69,6.16,9.38,9.23,14.07,.09,.14,.18,.28,.29,.4,.47,.55,1.17,.55,1.64,0,.1-.12,.19-.25,.27-.38,3.06-4.67,6.13-9.34,9.19-14,.13-.2,.27-.39,.41-.59,.27-.37,.64-.57,1.09-.62,.25-.03,.51-.05,.77-.05,1.02,0,2.03,0,3.05,0,.15,0,.29,.01,.43,.05,.38,.1,.57,.42,.46,.8-.06,.2-.17,.39-.28,.56-1.98,3.02-3.97,6.04-5.96,9.06-1.51,2.29-3.01,4.57-4.52,6.86-.43,.65-.88,1.28-1.41,1.86-.63,.69-1.36,1.23-2.27,1.48-.32,.09-.64,.14-.96,.2-.07,.01-.14,.03-.21,.05h-1.76Z"/><path class="d" d="M38.29,29.5s-.04-.04-.06-.05c-.51-.13-.72-.5-.76-.99-.01-.13-.01-.26-.01-.38,0-6.02,0-12.04,0-18.07,0-.22,.02-.44,.06-.65,.08-.41,.36-.65,.76-.73,.18-.04,.36-.05,.55-.05,.76,0,1.52,0,2.28,0,.18,0,.37,.02,.55,.05,.41,.08,.68,.32,.76,.73,.04,.18,.06,.36,.06,.54,0,.58,0,1.15,0,1.73,0,5.45,0,10.91,0,16.36,0,.22,0,.44-.04,.66-.06,.41-.29,.68-.7,.79-.03,0-.06,.03-.09,.05h-3.35Z"/><path class="d" d="M40.15,0c.45,.18,.8,.5,1.13,.84,.45,.47,.92,.91,1.37,1.38,.18,.19,.35,.4,.48,.63,.18,.3,.18,.64,0,.94-.11,.2-.25,.39-.4,.55-.57,.59-1.15,1.17-1.75,1.75-.17,.16-.37,.3-.57,.42-.3,.17-.62,.16-.92,0-.16-.09-.32-.18-.45-.31-.66-.65-1.31-1.3-1.96-1.96-.13-.13-.24-.3-.32-.47-.16-.29-.16-.61,0-.89,.12-.21,.27-.42,.44-.59,.56-.58,1.14-1.14,1.7-1.71,.25-.25,.54-.43,.86-.57h.38Z"/></g></g></g></svg>